<mxfile host="app.diagrams.net" modified="2023-04-16T19:22:18.399Z" agent="Mozilla/5.0 (Windows NT 10.0; Win64; x64) AppleWebKit/537.36 (KHTML, like Gecko) Chrome/111.0.0.0 Safari/537.36" etag="l2bC__-BefZ73-bX3vkp" version="21.1.1" type="device">
  <diagram name="Page-1" id="7e0a89b8-554c-2b80-1dc8-d5c74ca68de4">
    <mxGraphModel dx="3400" dy="862" grid="1" gridSize="10" guides="1" tooltips="1" connect="1" arrows="1" fold="1" page="1" pageScale="1" pageWidth="1100" pageHeight="850" background="none" math="0" shadow="0">
      <root>
        <mxCell id="0" />
        <mxCell id="1" parent="0" />
        <mxCell id="Nh_o5qFJWG5SFRAzF5zc-1" value="Circuito" style="whiteSpace=wrap;html=1;aspect=fixed;" parent="1" vertex="1">
          <mxGeometry x="200" y="120" width="160" height="160" as="geometry" />
        </mxCell>
        <mxCell id="Nh_o5qFJWG5SFRAzF5zc-2" value="" style="endArrow=none;html=1;rounded=0;exitX=0;exitY=0.25;exitDx=0;exitDy=0;" parent="1" edge="1">
          <mxGeometry width="50" height="50" relative="1" as="geometry">
            <mxPoint x="200" y="150" as="sourcePoint" />
            <mxPoint x="120" y="150" as="targetPoint" />
            <Array as="points" />
          </mxGeometry>
        </mxCell>
        <mxCell id="Nh_o5qFJWG5SFRAzF5zc-5" value="" style="endArrow=none;html=1;rounded=0;entryX=0.5;entryY=0;entryDx=0;entryDy=0;exitX=0;exitY=0.5;exitDx=0;exitDy=0;" parent="1" source="Nh_o5qFJWG5SFRAzF5zc-14" target="Nh_o5qFJWG5SFRAzF5zc-1" edge="1">
          <mxGeometry width="50" height="50" relative="1" as="geometry">
            <mxPoint x="280" y="40" as="sourcePoint" />
            <mxPoint x="380" y="140" as="targetPoint" />
          </mxGeometry>
        </mxCell>
        <mxCell id="Nh_o5qFJWG5SFRAzF5zc-8" value="" style="endArrow=none;html=1;rounded=0;exitX=0;exitY=0.25;exitDx=0;exitDy=0;" parent="1" edge="1">
          <mxGeometry width="50" height="50" relative="1" as="geometry">
            <mxPoint x="200" y="170" as="sourcePoint" />
            <mxPoint x="120" y="170" as="targetPoint" />
            <Array as="points" />
          </mxGeometry>
        </mxCell>
        <mxCell id="Nh_o5qFJWG5SFRAzF5zc-10" value="" style="endArrow=none;html=1;rounded=0;exitX=0;exitY=0.25;exitDx=0;exitDy=0;" parent="1" edge="1">
          <mxGeometry width="50" height="50" relative="1" as="geometry">
            <mxPoint x="200" y="190" as="sourcePoint" />
            <mxPoint x="120" y="190" as="targetPoint" />
            <Array as="points" />
          </mxGeometry>
        </mxCell>
        <mxCell id="Nh_o5qFJWG5SFRAzF5zc-11" value="" style="endArrow=none;html=1;rounded=0;exitX=0;exitY=0.25;exitDx=0;exitDy=0;" parent="1" edge="1">
          <mxGeometry width="50" height="50" relative="1" as="geometry">
            <mxPoint x="200" y="130" as="sourcePoint" />
            <mxPoint x="120" y="130" as="targetPoint" />
            <Array as="points" />
          </mxGeometry>
        </mxCell>
        <mxCell id="Nh_o5qFJWG5SFRAzF5zc-12" value="" style="endArrow=none;html=1;rounded=0;exitX=0;exitY=0.25;exitDx=0;exitDy=0;" parent="1" edge="1">
          <mxGeometry width="50" height="50" relative="1" as="geometry">
            <mxPoint x="200" y="250" as="sourcePoint" />
            <mxPoint x="120" y="250" as="targetPoint" />
            <Array as="points" />
          </mxGeometry>
        </mxCell>
        <mxCell id="Nh_o5qFJWG5SFRAzF5zc-13" value="" style="endArrow=none;html=1;rounded=0;exitX=0;exitY=0.25;exitDx=0;exitDy=0;" parent="1" edge="1">
          <mxGeometry width="50" height="50" relative="1" as="geometry">
            <mxPoint x="200" y="270" as="sourcePoint" />
            <mxPoint x="120" y="270" as="targetPoint" />
            <Array as="points" />
          </mxGeometry>
        </mxCell>
        <mxCell id="Nh_o5qFJWG5SFRAzF5zc-14" value="" style="triangle;whiteSpace=wrap;html=1;rotation=-90;" parent="1" vertex="1">
          <mxGeometry x="270" y="40" width="20" height="20" as="geometry" />
        </mxCell>
        <mxCell id="8T2jtrWnblq2DnpOFZXS-1" value="" style="pointerEvents=1;fillColor=strokeColor;verticalLabelPosition=bottom;shadow=0;dashed=0;align=center;html=1;verticalAlign=top;shape=mxgraph.electrical.diodes.diode;rotation=-180;" parent="1" vertex="1">
          <mxGeometry x="410" y="170" width="100" height="60" as="geometry" />
        </mxCell>
        <mxCell id="8T2jtrWnblq2DnpOFZXS-2" value="" style="endArrow=none;html=1;rounded=0;exitX=1;exitY=0.5;exitDx=0;exitDy=0;exitPerimeter=0;entryX=1;entryY=0.5;entryDx=0;entryDy=0;" parent="1" source="8T2jtrWnblq2DnpOFZXS-1" target="Nh_o5qFJWG5SFRAzF5zc-1" edge="1">
          <mxGeometry width="50" height="50" relative="1" as="geometry">
            <mxPoint x="440" y="199.71" as="sourcePoint" />
            <mxPoint x="360" y="199.71" as="targetPoint" />
            <Array as="points" />
          </mxGeometry>
        </mxCell>
        <mxCell id="8T2jtrWnblq2DnpOFZXS-3" value="" style="endArrow=none;html=1;rounded=0;entryX=0;entryY=0.5;entryDx=0;entryDy=0;entryPerimeter=0;exitX=0;exitY=0.5;exitDx=0;exitDy=0;exitPerimeter=0;" parent="1" source="8T2jtrWnblq2DnpOFZXS-4" target="8T2jtrWnblq2DnpOFZXS-1" edge="1">
          <mxGeometry width="50" height="50" relative="1" as="geometry">
            <mxPoint x="560" y="200" as="sourcePoint" />
            <mxPoint x="530" y="190" as="targetPoint" />
            <Array as="points" />
          </mxGeometry>
        </mxCell>
        <mxCell id="8T2jtrWnblq2DnpOFZXS-4" value="" style="pointerEvents=1;verticalLabelPosition=bottom;shadow=0;dashed=0;align=center;html=1;verticalAlign=top;shape=mxgraph.electrical.resistors.resistor_2;" parent="1" vertex="1">
          <mxGeometry x="520" y="190" width="100" height="20" as="geometry" />
        </mxCell>
        <mxCell id="8T2jtrWnblq2DnpOFZXS-6" value="" style="endArrow=none;html=1;rounded=0;entryX=1;entryY=0.5;entryDx=0;entryDy=0;entryPerimeter=0;exitX=0;exitY=0.5;exitDx=0;exitDy=0;" parent="1" source="8T2jtrWnblq2DnpOFZXS-7" target="8T2jtrWnblq2DnpOFZXS-4" edge="1">
          <mxGeometry width="50" height="50" relative="1" as="geometry">
            <mxPoint x="640" y="30" as="sourcePoint" />
            <mxPoint x="690" y="190" as="targetPoint" />
            <Array as="points">
              <mxPoint x="640" y="200" />
            </Array>
          </mxGeometry>
        </mxCell>
        <mxCell id="8T2jtrWnblq2DnpOFZXS-7" value="" style="triangle;whiteSpace=wrap;html=1;rotation=-90;" parent="1" vertex="1">
          <mxGeometry x="630" y="40" width="20" height="20" as="geometry" />
        </mxCell>
        <mxCell id="8T2jtrWnblq2DnpOFZXS-8" value="" style="pointerEvents=1;verticalLabelPosition=bottom;shadow=0;dashed=0;align=center;html=1;verticalAlign=top;shape=mxgraph.electrical.signal_sources.protective_earth;" parent="1" vertex="1">
          <mxGeometry x="267.5" y="310" width="25" height="20" as="geometry" />
        </mxCell>
        <mxCell id="8T2jtrWnblq2DnpOFZXS-10" value="" style="endArrow=none;html=1;rounded=0;entryX=0.5;entryY=1;entryDx=0;entryDy=0;exitX=0.5;exitY=0;exitDx=0;exitDy=0;exitPerimeter=0;" parent="1" source="8T2jtrWnblq2DnpOFZXS-8" target="Nh_o5qFJWG5SFRAzF5zc-1" edge="1">
          <mxGeometry width="50" height="50" relative="1" as="geometry">
            <mxPoint x="280" y="320" as="sourcePoint" />
            <mxPoint x="320" y="310" as="targetPoint" />
            <Array as="points" />
          </mxGeometry>
        </mxCell>
        <mxCell id="8T2jtrWnblq2DnpOFZXS-11" value="Circuito" style="whiteSpace=wrap;html=1;aspect=fixed;" parent="1" vertex="1">
          <mxGeometry x="200" y="480" width="160" height="160" as="geometry" />
        </mxCell>
        <mxCell id="8T2jtrWnblq2DnpOFZXS-13" value="" style="endArrow=none;html=1;rounded=0;entryX=0.5;entryY=0;entryDx=0;entryDy=0;exitX=0;exitY=0.5;exitDx=0;exitDy=0;" parent="1" source="8T2jtrWnblq2DnpOFZXS-19" target="8T2jtrWnblq2DnpOFZXS-11" edge="1">
          <mxGeometry width="50" height="50" relative="1" as="geometry">
            <mxPoint x="280" y="400" as="sourcePoint" />
            <mxPoint x="380" y="500" as="targetPoint" />
          </mxGeometry>
        </mxCell>
        <mxCell id="8T2jtrWnblq2DnpOFZXS-19" value="" style="triangle;whiteSpace=wrap;html=1;rotation=-90;" parent="1" vertex="1">
          <mxGeometry x="270" y="400" width="20" height="20" as="geometry" />
        </mxCell>
        <mxCell id="8T2jtrWnblq2DnpOFZXS-20" value="" style="pointerEvents=1;verticalLabelPosition=bottom;shadow=0;dashed=0;align=center;html=1;verticalAlign=top;shape=mxgraph.electrical.signal_sources.protective_earth;" parent="1" vertex="1">
          <mxGeometry x="267.5" y="670" width="25" height="20" as="geometry" />
        </mxCell>
        <mxCell id="8T2jtrWnblq2DnpOFZXS-21" value="" style="endArrow=none;html=1;rounded=0;entryX=0.5;entryY=1;entryDx=0;entryDy=0;exitX=0.5;exitY=0;exitDx=0;exitDy=0;exitPerimeter=0;" parent="1" source="8T2jtrWnblq2DnpOFZXS-20" target="8T2jtrWnblq2DnpOFZXS-11" edge="1">
          <mxGeometry width="50" height="50" relative="1" as="geometry">
            <mxPoint x="280" y="680" as="sourcePoint" />
            <mxPoint x="320" y="670" as="targetPoint" />
            <Array as="points" />
          </mxGeometry>
        </mxCell>
        <mxCell id="8T2jtrWnblq2DnpOFZXS-22" value="" style="endArrow=none;html=1;rounded=0;entryX=1;entryY=0.5;entryDx=0;entryDy=0;exitX=0;exitY=0.5;exitDx=0;exitDy=0;exitPerimeter=0;" parent="1" source="8T2jtrWnblq2DnpOFZXS-23" target="8T2jtrWnblq2DnpOFZXS-11" edge="1">
          <mxGeometry width="50" height="50" relative="1" as="geometry">
            <mxPoint x="400" y="560" as="sourcePoint" />
            <mxPoint x="410" y="530" as="targetPoint" />
            <Array as="points" />
          </mxGeometry>
        </mxCell>
        <mxCell id="8T2jtrWnblq2DnpOFZXS-23" value="" style="pointerEvents=1;verticalLabelPosition=bottom;shadow=0;dashed=0;align=center;html=1;verticalAlign=top;shape=mxgraph.electrical.resistors.resistor_2;" parent="1" vertex="1">
          <mxGeometry x="400" y="550" width="100" height="20" as="geometry" />
        </mxCell>
        <mxCell id="8T2jtrWnblq2DnpOFZXS-24" value="" style="pointerEvents=1;fillColor=strokeColor;verticalLabelPosition=bottom;shadow=0;dashed=0;align=center;html=1;verticalAlign=top;shape=mxgraph.electrical.diodes.diode;" parent="1" vertex="1">
          <mxGeometry x="500" y="530" width="100" height="60" as="geometry" />
        </mxCell>
        <mxCell id="8T2jtrWnblq2DnpOFZXS-25" value="" style="endArrow=none;html=1;rounded=0;exitX=0;exitY=0.5;exitDx=0;exitDy=0;entryX=1;entryY=0.5;entryDx=0;entryDy=0;entryPerimeter=0;exitPerimeter=0;" parent="1" source="8T2jtrWnblq2DnpOFZXS-24" target="8T2jtrWnblq2DnpOFZXS-23" edge="1">
          <mxGeometry width="50" height="50" relative="1" as="geometry">
            <mxPoint x="560" y="520" as="sourcePoint" />
            <mxPoint x="480" y="520" as="targetPoint" />
            <Array as="points" />
          </mxGeometry>
        </mxCell>
        <mxCell id="8T2jtrWnblq2DnpOFZXS-26" value="" style="endArrow=none;html=1;rounded=0;entryX=1;entryY=0.5;entryDx=0;entryDy=0;entryPerimeter=0;exitX=0.5;exitY=0;exitDx=0;exitDy=0;exitPerimeter=0;" parent="1" source="8T2jtrWnblq2DnpOFZXS-27" target="8T2jtrWnblq2DnpOFZXS-24" edge="1">
          <mxGeometry width="50" height="50" relative="1" as="geometry">
            <mxPoint x="640" y="670" as="sourcePoint" />
            <mxPoint x="670" y="550" as="targetPoint" />
            <Array as="points">
              <mxPoint x="640" y="560" />
            </Array>
          </mxGeometry>
        </mxCell>
        <mxCell id="8T2jtrWnblq2DnpOFZXS-27" value="" style="pointerEvents=1;verticalLabelPosition=bottom;shadow=0;dashed=0;align=center;html=1;verticalAlign=top;shape=mxgraph.electrical.signal_sources.protective_earth;" parent="1" vertex="1">
          <mxGeometry x="627.5" y="670" width="25" height="20" as="geometry" />
        </mxCell>
        <mxCell id="8T2jtrWnblq2DnpOFZXS-29" value="Vcc" style="text;html=1;align=center;verticalAlign=middle;resizable=0;points=[];autosize=1;strokeColor=none;fillColor=none;" parent="1" vertex="1">
          <mxGeometry x="280" y="30" width="40" height="30" as="geometry" />
        </mxCell>
        <mxCell id="8T2jtrWnblq2DnpOFZXS-30" value="Vcc" style="text;html=1;align=center;verticalAlign=middle;resizable=0;points=[];autosize=1;strokeColor=none;fillColor=none;" parent="1" vertex="1">
          <mxGeometry x="640" y="30" width="40" height="30" as="geometry" />
        </mxCell>
        <mxCell id="8T2jtrWnblq2DnpOFZXS-31" value="Vcc" style="text;html=1;align=center;verticalAlign=middle;resizable=0;points=[];autosize=1;strokeColor=none;fillColor=none;" parent="1" vertex="1">
          <mxGeometry x="280" y="390" width="40" height="30" as="geometry" />
        </mxCell>
        <mxCell id="8T2jtrWnblq2DnpOFZXS-33" value="" style="endArrow=classic;html=1;rounded=0;" parent="1" edge="1">
          <mxGeometry width="50" height="50" relative="1" as="geometry">
            <mxPoint x="466" y="170" as="sourcePoint" />
            <mxPoint x="454" y="150" as="targetPoint" />
          </mxGeometry>
        </mxCell>
        <mxCell id="8T2jtrWnblq2DnpOFZXS-34" value="" style="endArrow=classic;html=1;rounded=0;" parent="1" edge="1">
          <mxGeometry width="50" height="50" relative="1" as="geometry">
            <mxPoint x="456" y="170" as="sourcePoint" />
            <mxPoint x="444" y="150" as="targetPoint" />
          </mxGeometry>
        </mxCell>
        <mxCell id="8T2jtrWnblq2DnpOFZXS-35" value="" style="endArrow=classic;html=1;rounded=0;" parent="1" edge="1">
          <mxGeometry width="50" height="50" relative="1" as="geometry">
            <mxPoint x="551" y="530" as="sourcePoint" />
            <mxPoint x="560" y="510" as="targetPoint" />
          </mxGeometry>
        </mxCell>
        <mxCell id="8T2jtrWnblq2DnpOFZXS-36" value="" style="endArrow=classic;html=1;rounded=0;" parent="1" edge="1">
          <mxGeometry width="50" height="50" relative="1" as="geometry">
            <mxPoint x="541" y="530" as="sourcePoint" />
            <mxPoint x="550" y="510" as="targetPoint" />
          </mxGeometry>
        </mxCell>
        <mxCell id="8T2jtrWnblq2DnpOFZXS-37" value="R" style="text;html=1;align=center;verticalAlign=middle;resizable=0;points=[];autosize=1;strokeColor=none;fillColor=none;" parent="1" vertex="1">
          <mxGeometry x="555" y="160" width="30" height="30" as="geometry" />
        </mxCell>
        <mxCell id="8T2jtrWnblq2DnpOFZXS-38" value="R" style="text;html=1;align=center;verticalAlign=middle;resizable=0;points=[];autosize=1;strokeColor=none;fillColor=none;" parent="1" vertex="1">
          <mxGeometry x="435" y="520" width="30" height="30" as="geometry" />
        </mxCell>
        <mxCell id="8T2jtrWnblq2DnpOFZXS-39" value="" style="endArrow=none;html=1;rounded=0;exitX=0;exitY=0.25;exitDx=0;exitDy=0;" parent="1" edge="1">
          <mxGeometry width="50" height="50" relative="1" as="geometry">
            <mxPoint x="200" y="210" as="sourcePoint" />
            <mxPoint x="120" y="210" as="targetPoint" />
            <Array as="points" />
          </mxGeometry>
        </mxCell>
        <mxCell id="8T2jtrWnblq2DnpOFZXS-40" value="" style="endArrow=none;html=1;rounded=0;exitX=0;exitY=0.25;exitDx=0;exitDy=0;" parent="1" edge="1">
          <mxGeometry width="50" height="50" relative="1" as="geometry">
            <mxPoint x="200" y="230" as="sourcePoint" />
            <mxPoint x="120" y="230" as="targetPoint" />
            <Array as="points" />
          </mxGeometry>
        </mxCell>
        <mxCell id="8T2jtrWnblq2DnpOFZXS-41" value="" style="endArrow=none;html=1;rounded=0;exitX=0;exitY=0.25;exitDx=0;exitDy=0;" parent="1" edge="1">
          <mxGeometry width="50" height="50" relative="1" as="geometry">
            <mxPoint x="200" y="509.71" as="sourcePoint" />
            <mxPoint x="120" y="509.71" as="targetPoint" />
            <Array as="points" />
          </mxGeometry>
        </mxCell>
        <mxCell id="8T2jtrWnblq2DnpOFZXS-42" value="" style="endArrow=none;html=1;rounded=0;exitX=0;exitY=0.25;exitDx=0;exitDy=0;" parent="1" edge="1">
          <mxGeometry width="50" height="50" relative="1" as="geometry">
            <mxPoint x="200" y="529.71" as="sourcePoint" />
            <mxPoint x="120" y="529.71" as="targetPoint" />
            <Array as="points" />
          </mxGeometry>
        </mxCell>
        <mxCell id="8T2jtrWnblq2DnpOFZXS-43" value="" style="endArrow=none;html=1;rounded=0;exitX=0;exitY=0.25;exitDx=0;exitDy=0;" parent="1" edge="1">
          <mxGeometry width="50" height="50" relative="1" as="geometry">
            <mxPoint x="200" y="549.71" as="sourcePoint" />
            <mxPoint x="120" y="549.71" as="targetPoint" />
            <Array as="points" />
          </mxGeometry>
        </mxCell>
        <mxCell id="8T2jtrWnblq2DnpOFZXS-44" value="" style="endArrow=none;html=1;rounded=0;exitX=0;exitY=0.25;exitDx=0;exitDy=0;" parent="1" edge="1">
          <mxGeometry width="50" height="50" relative="1" as="geometry">
            <mxPoint x="200" y="489.71" as="sourcePoint" />
            <mxPoint x="120" y="489.71" as="targetPoint" />
            <Array as="points" />
          </mxGeometry>
        </mxCell>
        <mxCell id="8T2jtrWnblq2DnpOFZXS-45" value="" style="endArrow=none;html=1;rounded=0;exitX=0;exitY=0.25;exitDx=0;exitDy=0;" parent="1" edge="1">
          <mxGeometry width="50" height="50" relative="1" as="geometry">
            <mxPoint x="200" y="609.71" as="sourcePoint" />
            <mxPoint x="120" y="609.71" as="targetPoint" />
            <Array as="points" />
          </mxGeometry>
        </mxCell>
        <mxCell id="8T2jtrWnblq2DnpOFZXS-46" value="" style="endArrow=none;html=1;rounded=0;exitX=0;exitY=0.25;exitDx=0;exitDy=0;" parent="1" edge="1">
          <mxGeometry width="50" height="50" relative="1" as="geometry">
            <mxPoint x="200" y="629.71" as="sourcePoint" />
            <mxPoint x="120" y="629.71" as="targetPoint" />
            <Array as="points" />
          </mxGeometry>
        </mxCell>
        <mxCell id="8T2jtrWnblq2DnpOFZXS-47" value="" style="endArrow=none;html=1;rounded=0;exitX=0;exitY=0.25;exitDx=0;exitDy=0;" parent="1" edge="1">
          <mxGeometry width="50" height="50" relative="1" as="geometry">
            <mxPoint x="200" y="569.71" as="sourcePoint" />
            <mxPoint x="120" y="569.71" as="targetPoint" />
            <Array as="points" />
          </mxGeometry>
        </mxCell>
        <mxCell id="8T2jtrWnblq2DnpOFZXS-48" value="" style="endArrow=none;html=1;rounded=0;exitX=0;exitY=0.25;exitDx=0;exitDy=0;" parent="1" edge="1">
          <mxGeometry width="50" height="50" relative="1" as="geometry">
            <mxPoint x="200" y="589.71" as="sourcePoint" />
            <mxPoint x="120" y="589.71" as="targetPoint" />
            <Array as="points" />
          </mxGeometry>
        </mxCell>
        <mxCell id="8T2jtrWnblq2DnpOFZXS-49" value="LED" style="text;html=1;align=center;verticalAlign=middle;resizable=0;points=[];autosize=1;strokeColor=none;fillColor=none;" parent="1" vertex="1">
          <mxGeometry x="435" y="230" width="50" height="30" as="geometry" />
        </mxCell>
        <mxCell id="8T2jtrWnblq2DnpOFZXS-50" value="LED" style="text;html=1;align=center;verticalAlign=middle;resizable=0;points=[];autosize=1;strokeColor=none;fillColor=none;" parent="1" vertex="1">
          <mxGeometry x="525" y="590" width="50" height="30" as="geometry" />
        </mxCell>
        <mxCell id="8T2jtrWnblq2DnpOFZXS-51" value="" style="endArrow=none;html=1;rounded=0;" parent="1" edge="1">
          <mxGeometry width="50" height="50" relative="1" as="geometry">
            <mxPoint x="110" as="sourcePoint" />
            <mxPoint x="80" as="targetPoint" />
          </mxGeometry>
        </mxCell>
        <mxCell id="8T2jtrWnblq2DnpOFZXS-52" value="" style="endArrow=none;html=1;rounded=0;" parent="1" edge="1">
          <mxGeometry width="50" height="50" relative="1" as="geometry">
            <mxPoint x="80" as="sourcePoint" />
            <mxPoint x="80" y="30" as="targetPoint" />
          </mxGeometry>
        </mxCell>
        <mxCell id="8T2jtrWnblq2DnpOFZXS-55" value="" style="endArrow=none;html=1;rounded=0;" parent="1" edge="1">
          <mxGeometry width="50" height="50" relative="1" as="geometry">
            <mxPoint x="690" y="720" as="sourcePoint" />
            <mxPoint x="720" y="720" as="targetPoint" />
          </mxGeometry>
        </mxCell>
        <mxCell id="8T2jtrWnblq2DnpOFZXS-56" value="" style="endArrow=none;html=1;rounded=0;" parent="1" edge="1">
          <mxGeometry width="50" height="50" relative="1" as="geometry">
            <mxPoint x="720" y="720" as="sourcePoint" />
            <mxPoint x="720" y="690" as="targetPoint" />
          </mxGeometry>
        </mxCell>
        <mxCell id="IEQYEWKx81t9l4njgBIL-1" value="" style="endArrow=none;html=1;rounded=0;" edge="1" parent="1">
          <mxGeometry width="50" height="50" relative="1" as="geometry">
            <mxPoint x="920" as="sourcePoint" />
            <mxPoint x="880" y="40" as="targetPoint" />
            <Array as="points">
              <mxPoint x="880" />
            </Array>
          </mxGeometry>
        </mxCell>
        <mxCell id="IEQYEWKx81t9l4njgBIL-2" value="&lt;b&gt;B5&lt;/b&gt;" style="text;html=1;align=center;verticalAlign=middle;resizable=0;points=[];autosize=1;strokeColor=none;fillColor=none;" vertex="1" parent="1">
          <mxGeometry x="920" y="60" width="40" height="30" as="geometry" />
        </mxCell>
        <mxCell id="IEQYEWKx81t9l4njgBIL-3" value="&lt;b&gt;B4&lt;/b&gt;" style="text;html=1;align=center;verticalAlign=middle;resizable=0;points=[];autosize=1;strokeColor=none;fillColor=none;" vertex="1" parent="1">
          <mxGeometry x="920" y="100" width="40" height="30" as="geometry" />
        </mxCell>
        <mxCell id="IEQYEWKx81t9l4njgBIL-4" value="&lt;b&gt;B3&lt;/b&gt;" style="text;html=1;align=center;verticalAlign=middle;resizable=0;points=[];autosize=1;strokeColor=none;fillColor=none;" vertex="1" parent="1">
          <mxGeometry x="920" y="310" width="40" height="30" as="geometry" />
        </mxCell>
        <mxCell id="IEQYEWKx81t9l4njgBIL-5" value="&lt;b&gt;B2&lt;/b&gt;" style="text;html=1;align=center;verticalAlign=middle;resizable=0;points=[];autosize=1;strokeColor=none;fillColor=none;" vertex="1" parent="1">
          <mxGeometry x="920" y="335" width="40" height="30" as="geometry" />
        </mxCell>
        <mxCell id="IEQYEWKx81t9l4njgBIL-6" value="&lt;b&gt;B1&lt;/b&gt;" style="text;html=1;align=center;verticalAlign=middle;resizable=0;points=[];autosize=1;strokeColor=none;fillColor=none;" vertex="1" parent="1">
          <mxGeometry x="920" y="650" width="40" height="30" as="geometry" />
        </mxCell>
        <mxCell id="IEQYEWKx81t9l4njgBIL-7" value="&lt;b&gt;B0&lt;/b&gt;" style="text;html=1;align=center;verticalAlign=middle;resizable=0;points=[];autosize=1;strokeColor=none;fillColor=none;" vertex="1" parent="1">
          <mxGeometry x="920" y="680" width="40" height="30" as="geometry" />
        </mxCell>
        <mxCell id="IEQYEWKx81t9l4njgBIL-8" value="&lt;b&gt;B/&lt;u&gt;G&lt;/u&gt;&lt;/b&gt;" style="text;html=1;align=center;verticalAlign=middle;resizable=0;points=[];autosize=1;strokeColor=none;fillColor=none;" vertex="1" parent="1">
          <mxGeometry x="920" y="740" width="40" height="30" as="geometry" />
        </mxCell>
        <mxCell id="IEQYEWKx81t9l4njgBIL-9" value="&lt;b&gt;A/&lt;u&gt;K&lt;/u&gt;&lt;/b&gt;" style="text;html=1;align=center;verticalAlign=middle;resizable=0;points=[];autosize=1;strokeColor=none;fillColor=none;" vertex="1" parent="1">
          <mxGeometry x="920" y="780" width="40" height="30" as="geometry" />
        </mxCell>
        <mxCell id="IEQYEWKx81t9l4njgBIL-10" value="" style="whiteSpace=wrap;html=1;aspect=fixed;" vertex="1" parent="1">
          <mxGeometry x="1160" y="60" width="80" height="80" as="geometry" />
        </mxCell>
        <mxCell id="IEQYEWKx81t9l4njgBIL-11" value="" style="whiteSpace=wrap;html=1;aspect=fixed;" vertex="1" parent="1">
          <mxGeometry x="1160" y="160" width="80" height="80" as="geometry" />
        </mxCell>
        <mxCell id="IEQYEWKx81t9l4njgBIL-12" value="GS" style="whiteSpace=wrap;html=1;aspect=fixed;" vertex="1" parent="1">
          <mxGeometry x="1160" y="280" width="80" height="80" as="geometry" />
        </mxCell>
        <mxCell id="IEQYEWKx81t9l4njgBIL-13" value="" style="endArrow=none;html=1;rounded=0;exitX=0;exitY=0.25;exitDx=0;exitDy=0;" edge="1" parent="1" source="IEQYEWKx81t9l4njgBIL-10">
          <mxGeometry width="50" height="50" relative="1" as="geometry">
            <mxPoint x="1250" y="200" as="sourcePoint" />
            <mxPoint x="960" y="80" as="targetPoint" />
          </mxGeometry>
        </mxCell>
        <mxCell id="IEQYEWKx81t9l4njgBIL-14" value="" style="endArrow=none;html=1;rounded=0;entryX=0;entryY=0.75;entryDx=0;entryDy=0;" edge="1" parent="1" target="IEQYEWKx81t9l4njgBIL-10">
          <mxGeometry width="50" height="50" relative="1" as="geometry">
            <mxPoint x="960" y="120" as="sourcePoint" />
            <mxPoint x="1300" y="150" as="targetPoint" />
          </mxGeometry>
        </mxCell>
        <mxCell id="IEQYEWKx81t9l4njgBIL-15" value="" style="endArrow=none;html=1;rounded=0;exitX=0;exitY=0.636;exitDx=0;exitDy=0;exitPerimeter=0;" edge="1" parent="1" source="IEQYEWKx81t9l4njgBIL-12">
          <mxGeometry width="50" height="50" relative="1" as="geometry">
            <mxPoint x="1140" y="320" as="sourcePoint" />
            <mxPoint x="960" y="330" as="targetPoint" />
          </mxGeometry>
        </mxCell>
        <mxCell id="IEQYEWKx81t9l4njgBIL-16" value="" style="endArrow=none;html=1;rounded=0;entryX=0.004;entryY=0.863;entryDx=0;entryDy=0;entryPerimeter=0;" edge="1" parent="1" target="IEQYEWKx81t9l4njgBIL-12">
          <mxGeometry width="50" height="50" relative="1" as="geometry">
            <mxPoint x="960" y="348" as="sourcePoint" />
            <mxPoint x="1140" y="370" as="targetPoint" />
          </mxGeometry>
        </mxCell>
        <mxCell id="IEQYEWKx81t9l4njgBIL-17" value="" style="endArrow=none;html=1;rounded=0;exitX=0;exitY=0.362;exitDx=0;exitDy=0;exitPerimeter=0;" edge="1" parent="1" source="IEQYEWKx81t9l4njgBIL-22">
          <mxGeometry width="50" height="50" relative="1" as="geometry">
            <mxPoint x="1160" y="574.9300000000001" as="sourcePoint" />
            <mxPoint x="960" y="670" as="targetPoint" />
            <Array as="points" />
          </mxGeometry>
        </mxCell>
        <mxCell id="IEQYEWKx81t9l4njgBIL-18" value="" style="endArrow=none;html=1;rounded=0;entryX=0;entryY=0.75;entryDx=0;entryDy=0;" edge="1" parent="1" target="IEQYEWKx81t9l4njgBIL-22">
          <mxGeometry width="50" height="50" relative="1" as="geometry">
            <mxPoint x="960" y="700" as="sourcePoint" />
            <mxPoint x="1120" y="710" as="targetPoint" />
          </mxGeometry>
        </mxCell>
        <mxCell id="IEQYEWKx81t9l4njgBIL-19" value="GC" style="whiteSpace=wrap;html=1;aspect=fixed;" vertex="1" parent="1">
          <mxGeometry x="1160" y="60" width="80" height="80" as="geometry" />
        </mxCell>
        <mxCell id="IEQYEWKx81t9l4njgBIL-20" value="B" style="whiteSpace=wrap;html=1;aspect=fixed;" vertex="1" parent="1">
          <mxGeometry x="1160" y="160" width="80" height="80" as="geometry" />
        </mxCell>
        <mxCell id="IEQYEWKx81t9l4njgBIL-21" value="GSS" style="whiteSpace=wrap;html=1;aspect=fixed;" vertex="1" parent="1">
          <mxGeometry x="1160" y="500.00000000000006" width="120" height="120" as="geometry" />
        </mxCell>
        <mxCell id="IEQYEWKx81t9l4njgBIL-22" value="B" style="whiteSpace=wrap;html=1;aspect=fixed;" vertex="1" parent="1">
          <mxGeometry x="1160" y="640" width="80" height="80" as="geometry" />
        </mxCell>
        <mxCell id="IEQYEWKx81t9l4njgBIL-23" value="B" style="whiteSpace=wrap;html=1;aspect=fixed;" vertex="1" parent="1">
          <mxGeometry x="1160" y="380.43" width="79.57" height="79.57" as="geometry" />
        </mxCell>
        <mxCell id="IEQYEWKx81t9l4njgBIL-24" value="" style="endArrow=none;html=1;rounded=0;exitX=0;exitY=0.25;exitDx=0;exitDy=0;" edge="1" parent="1" source="IEQYEWKx81t9l4njgBIL-21">
          <mxGeometry width="50" height="50" relative="1" as="geometry">
            <mxPoint x="930" y="840.4300000000001" as="sourcePoint" />
            <mxPoint x="1080" y="120" as="targetPoint" />
            <Array as="points">
              <mxPoint x="1080" y="530" />
            </Array>
          </mxGeometry>
        </mxCell>
        <mxCell id="IEQYEWKx81t9l4njgBIL-25" value="" style="endArrow=none;html=1;rounded=0;exitX=-0.001;exitY=0.419;exitDx=0;exitDy=0;exitPerimeter=0;" edge="1" parent="1" source="IEQYEWKx81t9l4njgBIL-21">
          <mxGeometry width="50" height="50" relative="1" as="geometry">
            <mxPoint x="1140" y="760.4300000000001" as="sourcePoint" />
            <mxPoint x="1040" y="330" as="targetPoint" />
            <Array as="points">
              <mxPoint x="1040" y="550" />
            </Array>
          </mxGeometry>
        </mxCell>
        <mxCell id="IEQYEWKx81t9l4njgBIL-26" value="" style="endArrow=none;html=1;rounded=0;exitX=0;exitY=0.75;exitDx=0;exitDy=0;" edge="1" parent="1" source="IEQYEWKx81t9l4njgBIL-21">
          <mxGeometry width="50" height="50" relative="1" as="geometry">
            <mxPoint x="990" y="830.4300000000001" as="sourcePoint" />
            <mxPoint x="1000" y="670" as="targetPoint" />
            <Array as="points">
              <mxPoint x="1000" y="590" />
            </Array>
          </mxGeometry>
        </mxCell>
        <mxCell id="IEQYEWKx81t9l4njgBIL-27" value="" style="endArrow=none;html=1;rounded=0;exitX=0;exitY=0.917;exitDx=0;exitDy=0;exitPerimeter=0;" edge="1" parent="1" source="IEQYEWKx81t9l4njgBIL-21">
          <mxGeometry width="50" height="50" relative="1" as="geometry">
            <mxPoint x="1070" y="800.4300000000001" as="sourcePoint" />
            <mxPoint x="1040" y="700" as="targetPoint" />
            <Array as="points">
              <mxPoint x="1040" y="610" />
            </Array>
          </mxGeometry>
        </mxCell>
        <mxCell id="IEQYEWKx81t9l4njgBIL-28" value="" style="endArrow=none;html=1;rounded=0;entryX=0.006;entryY=0.125;entryDx=0;entryDy=0;entryPerimeter=0;" edge="1" parent="1" target="IEQYEWKx81t9l4njgBIL-12">
          <mxGeometry width="50" height="50" relative="1" as="geometry">
            <mxPoint x="1120" y="290" as="sourcePoint" />
            <mxPoint x="1120" y="390" as="targetPoint" />
          </mxGeometry>
        </mxCell>
        <mxCell id="IEQYEWKx81t9l4njgBIL-29" value="" style="endArrow=none;html=1;rounded=0;entryX=0;entryY=0.375;entryDx=0;entryDy=0;entryPerimeter=0;" edge="1" parent="1" target="IEQYEWKx81t9l4njgBIL-12">
          <mxGeometry width="50" height="50" relative="1" as="geometry">
            <mxPoint x="1080" y="310" as="sourcePoint" />
            <mxPoint x="1080" y="330" as="targetPoint" />
          </mxGeometry>
        </mxCell>
        <mxCell id="IEQYEWKx81t9l4njgBIL-30" value="" style="endArrow=none;html=1;rounded=0;exitX=0;exitY=0.25;exitDx=0;exitDy=0;" edge="1" parent="1" source="IEQYEWKx81t9l4njgBIL-23">
          <mxGeometry width="50" height="50" relative="1" as="geometry">
            <mxPoint x="1180" y="630.4300000000001" as="sourcePoint" />
            <mxPoint x="1040" y="400" as="targetPoint" />
          </mxGeometry>
        </mxCell>
        <mxCell id="IEQYEWKx81t9l4njgBIL-31" value="" style="endArrow=none;html=1;rounded=0;exitX=0;exitY=0.75;exitDx=0;exitDy=0;" edge="1" parent="1" source="IEQYEWKx81t9l4njgBIL-23">
          <mxGeometry width="50" height="50" relative="1" as="geometry">
            <mxPoint x="1180" y="630.4300000000001" as="sourcePoint" />
            <mxPoint x="1000" y="440" as="targetPoint" />
          </mxGeometry>
        </mxCell>
        <mxCell id="IEQYEWKx81t9l4njgBIL-32" value="" style="endArrow=none;html=1;rounded=0;entryX=0;entryY=0.25;entryDx=0;entryDy=0;" edge="1" parent="1" target="IEQYEWKx81t9l4njgBIL-20">
          <mxGeometry width="50" height="50" relative="1" as="geometry">
            <mxPoint x="1120" y="180" as="sourcePoint" />
            <mxPoint x="1170" y="260" as="targetPoint" />
          </mxGeometry>
        </mxCell>
        <mxCell id="IEQYEWKx81t9l4njgBIL-33" value="" style="endArrow=none;html=1;rounded=0;entryX=0;entryY=0.75;entryDx=0;entryDy=0;" edge="1" parent="1" target="IEQYEWKx81t9l4njgBIL-20">
          <mxGeometry width="50" height="50" relative="1" as="geometry">
            <mxPoint x="1080" y="220" as="sourcePoint" />
            <mxPoint x="1170" y="260" as="targetPoint" />
          </mxGeometry>
        </mxCell>
        <mxCell id="IEQYEWKx81t9l4njgBIL-34" value="" style="endArrow=none;html=1;rounded=0;exitX=1;exitY=0.125;exitDx=0;exitDy=0;exitPerimeter=0;entryX=0;entryY=0.25;entryDx=0;entryDy=0;" edge="1" parent="1" source="IEQYEWKx81t9l4njgBIL-19" target="IEQYEWKx81t9l4njgBIL-48">
          <mxGeometry width="50" height="50" relative="1" as="geometry">
            <mxPoint x="1670" y="240" as="sourcePoint" />
            <mxPoint x="1710" y="49.5" as="targetPoint" />
            <Array as="points" />
          </mxGeometry>
        </mxCell>
        <mxCell id="IEQYEWKx81t9l4njgBIL-35" value="" style="endArrow=none;html=1;rounded=0;exitX=1;exitY=0.375;exitDx=0;exitDy=0;exitPerimeter=0;entryX=0;entryY=0.25;entryDx=0;entryDy=0;" edge="1" parent="1" source="IEQYEWKx81t9l4njgBIL-19" target="IEQYEWKx81t9l4njgBIL-49">
          <mxGeometry width="50" height="50" relative="1" as="geometry">
            <mxPoint x="1300" y="90" as="sourcePoint" />
            <mxPoint x="1480" y="90" as="targetPoint" />
            <Array as="points">
              <mxPoint x="1480" y="90" />
              <mxPoint x="1480" y="120" />
            </Array>
          </mxGeometry>
        </mxCell>
        <mxCell id="IEQYEWKx81t9l4njgBIL-36" value="" style="endArrow=none;html=1;rounded=0;exitX=1;exitY=0.625;exitDx=0;exitDy=0;exitPerimeter=0;entryX=0;entryY=0.25;entryDx=0;entryDy=0;" edge="1" parent="1" source="IEQYEWKx81t9l4njgBIL-19" target="IEQYEWKx81t9l4njgBIL-50">
          <mxGeometry width="50" height="50" relative="1" as="geometry">
            <mxPoint x="1330" y="160" as="sourcePoint" />
            <mxPoint x="1700" y="151.5000000000001" as="targetPoint" />
            <Array as="points">
              <mxPoint x="1440" y="110" />
              <mxPoint x="1440" y="170" />
            </Array>
          </mxGeometry>
        </mxCell>
        <mxCell id="IEQYEWKx81t9l4njgBIL-37" value="" style="endArrow=none;html=1;rounded=0;exitX=1;exitY=0.875;exitDx=0;exitDy=0;exitPerimeter=0;entryX=0;entryY=0.25;entryDx=0;entryDy=0;" edge="1" parent="1" source="IEQYEWKx81t9l4njgBIL-19" target="IEQYEWKx81t9l4njgBIL-51">
          <mxGeometry width="50" height="50" relative="1" as="geometry">
            <mxPoint x="1330" y="160" as="sourcePoint" />
            <mxPoint x="1590" y="211.5000000000001" as="targetPoint" />
            <Array as="points">
              <mxPoint x="1360" y="130" />
              <mxPoint x="1360" y="220" />
            </Array>
          </mxGeometry>
        </mxCell>
        <mxCell id="IEQYEWKx81t9l4njgBIL-38" value="" style="endArrow=none;html=1;rounded=0;exitX=1;exitY=0.125;exitDx=0;exitDy=0;exitPerimeter=0;entryX=0;entryY=0.5;entryDx=0;entryDy=0;" edge="1" parent="1" target="IEQYEWKx81t9l4njgBIL-48">
          <mxGeometry width="50" height="50" relative="1" as="geometry">
            <mxPoint x="1240" y="169.29000000000002" as="sourcePoint" />
            <mxPoint x="1690" y="70" as="targetPoint" />
            <Array as="points">
              <mxPoint x="1320" y="170" />
              <mxPoint x="1320" y="80" />
            </Array>
          </mxGeometry>
        </mxCell>
        <mxCell id="IEQYEWKx81t9l4njgBIL-39" value="" style="endArrow=none;html=1;rounded=0;entryX=0;entryY=0.5;entryDx=0;entryDy=0;" edge="1" parent="1" target="IEQYEWKx81t9l4njgBIL-49">
          <mxGeometry width="50" height="50" relative="1" as="geometry">
            <mxPoint x="1240" y="190" as="sourcePoint" />
            <mxPoint x="1590" y="106.5" as="targetPoint" />
            <Array as="points">
              <mxPoint x="1400" y="190" />
              <mxPoint x="1400" y="130" />
            </Array>
          </mxGeometry>
        </mxCell>
        <mxCell id="IEQYEWKx81t9l4njgBIL-40" value="" style="endArrow=none;html=1;rounded=0;exitX=1;exitY=0.625;exitDx=0;exitDy=0;exitPerimeter=0;entryX=0;entryY=0.5;entryDx=0;entryDy=0;" edge="1" parent="1" target="IEQYEWKx81t9l4njgBIL-50">
          <mxGeometry width="50" height="50" relative="1" as="geometry">
            <mxPoint x="1240" y="209.29000000000002" as="sourcePoint" />
            <mxPoint x="1700" y="168.5000000000001" as="targetPoint" />
            <Array as="points">
              <mxPoint x="1320" y="209" />
              <mxPoint x="1440" y="210" />
              <mxPoint x="1440" y="180" />
            </Array>
          </mxGeometry>
        </mxCell>
        <mxCell id="IEQYEWKx81t9l4njgBIL-41" value="" style="endArrow=none;html=1;rounded=0;exitX=1;exitY=0.875;exitDx=0;exitDy=0;exitPerimeter=0;entryX=0;entryY=0.5;entryDx=0;entryDy=0;" edge="1" parent="1" target="IEQYEWKx81t9l4njgBIL-51">
          <mxGeometry width="50" height="50" relative="1" as="geometry">
            <mxPoint x="1240" y="229.29000000000002" as="sourcePoint" />
            <mxPoint x="1590" y="228.5000000000001" as="targetPoint" />
          </mxGeometry>
        </mxCell>
        <mxCell id="IEQYEWKx81t9l4njgBIL-42" value="" style="endArrow=none;html=1;rounded=0;entryX=-0.003;entryY=0.582;entryDx=0;entryDy=0;entryPerimeter=0;" edge="1" parent="1" target="IEQYEWKx81t9l4njgBIL-21">
          <mxGeometry width="50" height="50" relative="1" as="geometry">
            <mxPoint x="1000" y="350" as="sourcePoint" />
            <mxPoint x="1360" y="480" as="targetPoint" />
            <Array as="points">
              <mxPoint x="1000" y="570" />
            </Array>
          </mxGeometry>
        </mxCell>
        <mxCell id="IEQYEWKx81t9l4njgBIL-43" value="" style="endArrow=none;html=1;rounded=0;entryX=0.009;entryY=0.084;entryDx=0;entryDy=0;entryPerimeter=0;" edge="1" parent="1" target="IEQYEWKx81t9l4njgBIL-21">
          <mxGeometry width="50" height="50" relative="1" as="geometry">
            <mxPoint x="1120" y="80" as="sourcePoint" />
            <mxPoint x="1150" y="510" as="targetPoint" />
            <Array as="points">
              <mxPoint x="1120" y="510" />
            </Array>
          </mxGeometry>
        </mxCell>
        <mxCell id="IEQYEWKx81t9l4njgBIL-44" value="" style="endArrow=none;html=1;rounded=0;exitX=0;exitY=0.75;exitDx=0;exitDy=0;" edge="1" parent="1" source="IEQYEWKx81t9l4njgBIL-48">
          <mxGeometry width="50" height="50" relative="1" as="geometry">
            <mxPoint x="1740" y="87.99999999999989" as="sourcePoint" />
            <mxPoint x="960" y="760" as="targetPoint" />
            <Array as="points">
              <mxPoint x="1520" y="90" />
              <mxPoint x="1520" y="760" />
            </Array>
          </mxGeometry>
        </mxCell>
        <mxCell id="IEQYEWKx81t9l4njgBIL-45" value="" style="endArrow=none;html=1;rounded=0;exitX=0;exitY=0.75;exitDx=0;exitDy=0;" edge="1" parent="1" source="IEQYEWKx81t9l4njgBIL-49">
          <mxGeometry width="50" height="50" relative="1" as="geometry">
            <mxPoint x="1680" y="128" as="sourcePoint" />
            <mxPoint x="1520" y="140" as="targetPoint" />
          </mxGeometry>
        </mxCell>
        <mxCell id="IEQYEWKx81t9l4njgBIL-46" value="" style="endArrow=none;html=1;rounded=0;entryX=0;entryY=0.75;entryDx=0;entryDy=0;" edge="1" parent="1" target="IEQYEWKx81t9l4njgBIL-50">
          <mxGeometry width="50" height="50" relative="1" as="geometry">
            <mxPoint x="1520" y="190" as="sourcePoint" />
            <mxPoint x="1730" y="190" as="targetPoint" />
          </mxGeometry>
        </mxCell>
        <mxCell id="IEQYEWKx81t9l4njgBIL-47" value="" style="endArrow=none;html=1;rounded=0;exitX=0;exitY=0.75;exitDx=0;exitDy=0;" edge="1" parent="1" source="IEQYEWKx81t9l4njgBIL-51">
          <mxGeometry width="50" height="50" relative="1" as="geometry">
            <mxPoint x="1680" y="250" as="sourcePoint" />
            <mxPoint x="1520" y="240" as="targetPoint" />
          </mxGeometry>
        </mxCell>
        <mxCell id="IEQYEWKx81t9l4njgBIL-48" value="M" style="whiteSpace=wrap;html=1;aspect=fixed;" vertex="1" parent="1">
          <mxGeometry x="1560" y="60" width="40" height="40" as="geometry" />
        </mxCell>
        <mxCell id="IEQYEWKx81t9l4njgBIL-49" value="M" style="whiteSpace=wrap;html=1;aspect=fixed;" vertex="1" parent="1">
          <mxGeometry x="1560" y="110" width="40" height="40" as="geometry" />
        </mxCell>
        <mxCell id="IEQYEWKx81t9l4njgBIL-50" value="M" style="whiteSpace=wrap;html=1;aspect=fixed;" vertex="1" parent="1">
          <mxGeometry x="1560" y="160" width="40" height="40" as="geometry" />
        </mxCell>
        <mxCell id="IEQYEWKx81t9l4njgBIL-51" value="M" style="whiteSpace=wrap;html=1;aspect=fixed;" vertex="1" parent="1">
          <mxGeometry x="1560" y="210" width="40" height="40" as="geometry" />
        </mxCell>
        <mxCell id="IEQYEWKx81t9l4njgBIL-52" value="M" style="whiteSpace=wrap;html=1;aspect=fixed;" vertex="1" parent="1">
          <mxGeometry x="1560" y="280" width="40" height="40" as="geometry" />
        </mxCell>
        <mxCell id="IEQYEWKx81t9l4njgBIL-53" value="M" style="whiteSpace=wrap;html=1;aspect=fixed;" vertex="1" parent="1">
          <mxGeometry x="1560" y="330" width="40" height="40" as="geometry" />
        </mxCell>
        <mxCell id="IEQYEWKx81t9l4njgBIL-54" value="M" style="whiteSpace=wrap;html=1;aspect=fixed;" vertex="1" parent="1">
          <mxGeometry x="1560" y="380.43" width="40" height="40" as="geometry" />
        </mxCell>
        <mxCell id="IEQYEWKx81t9l4njgBIL-55" value="M" style="whiteSpace=wrap;html=1;aspect=fixed;" vertex="1" parent="1">
          <mxGeometry x="1560" y="430" width="40" height="40" as="geometry" />
        </mxCell>
        <mxCell id="IEQYEWKx81t9l4njgBIL-56" value="M" style="whiteSpace=wrap;html=1;aspect=fixed;" vertex="1" parent="1">
          <mxGeometry x="1560" y="690" width="40" height="40" as="geometry" />
        </mxCell>
        <mxCell id="IEQYEWKx81t9l4njgBIL-57" value="M" style="whiteSpace=wrap;html=1;aspect=fixed;" vertex="1" parent="1">
          <mxGeometry x="1560" y="640" width="40" height="40" as="geometry" />
        </mxCell>
        <mxCell id="IEQYEWKx81t9l4njgBIL-58" value="M" style="whiteSpace=wrap;html=1;aspect=fixed;" vertex="1" parent="1">
          <mxGeometry x="1560" y="590" width="40" height="40" as="geometry" />
        </mxCell>
        <mxCell id="IEQYEWKx81t9l4njgBIL-59" value="M" style="whiteSpace=wrap;html=1;aspect=fixed;" vertex="1" parent="1">
          <mxGeometry x="1560" y="540" width="40" height="40" as="geometry" />
        </mxCell>
        <mxCell id="IEQYEWKx81t9l4njgBIL-60" value="" style="endArrow=none;html=1;rounded=0;exitX=1;exitY=0.125;exitDx=0;exitDy=0;exitPerimeter=0;entryX=0;entryY=0.25;entryDx=0;entryDy=0;" edge="1" parent="1" target="IEQYEWKx81t9l4njgBIL-52">
          <mxGeometry width="50" height="50" relative="1" as="geometry">
            <mxPoint x="1240" y="289.6" as="sourcePoint" />
            <mxPoint x="1700" y="290" as="targetPoint" />
            <Array as="points" />
          </mxGeometry>
        </mxCell>
        <mxCell id="IEQYEWKx81t9l4njgBIL-61" value="" style="endArrow=none;html=1;rounded=0;exitX=1;exitY=0.375;exitDx=0;exitDy=0;exitPerimeter=0;entryX=0;entryY=0.25;entryDx=0;entryDy=0;" edge="1" parent="1" target="IEQYEWKx81t9l4njgBIL-53">
          <mxGeometry width="50" height="50" relative="1" as="geometry">
            <mxPoint x="1240" y="309.6" as="sourcePoint" />
            <mxPoint x="1700" y="340" as="targetPoint" />
            <Array as="points">
              <mxPoint x="1480" y="310" />
              <mxPoint x="1480" y="340" />
            </Array>
          </mxGeometry>
        </mxCell>
        <mxCell id="IEQYEWKx81t9l4njgBIL-62" value="" style="endArrow=none;html=1;rounded=0;exitX=1;exitY=0.625;exitDx=0;exitDy=0;exitPerimeter=0;entryX=0;entryY=0.25;entryDx=0;entryDy=0;" edge="1" parent="1" target="IEQYEWKx81t9l4njgBIL-54">
          <mxGeometry width="50" height="50" relative="1" as="geometry">
            <mxPoint x="1240" y="329.6" as="sourcePoint" />
            <mxPoint x="1690" y="390" as="targetPoint" />
            <Array as="points">
              <mxPoint x="1440" y="330" />
              <mxPoint x="1440" y="390" />
            </Array>
          </mxGeometry>
        </mxCell>
        <mxCell id="IEQYEWKx81t9l4njgBIL-63" value="" style="endArrow=none;html=1;rounded=0;exitX=1;exitY=0.875;exitDx=0;exitDy=0;exitPerimeter=0;entryX=0;entryY=0.25;entryDx=0;entryDy=0;" edge="1" parent="1" target="IEQYEWKx81t9l4njgBIL-55">
          <mxGeometry width="50" height="50" relative="1" as="geometry">
            <mxPoint x="1240" y="349.6" as="sourcePoint" />
            <mxPoint x="1700" y="440" as="targetPoint" />
            <Array as="points">
              <mxPoint x="1360" y="350" />
              <mxPoint x="1360" y="440" />
            </Array>
          </mxGeometry>
        </mxCell>
        <mxCell id="IEQYEWKx81t9l4njgBIL-64" value="" style="endArrow=none;html=1;rounded=0;exitX=1;exitY=0.125;exitDx=0;exitDy=0;exitPerimeter=0;entryX=0;entryY=0.5;entryDx=0;entryDy=0;" edge="1" parent="1" target="IEQYEWKx81t9l4njgBIL-52">
          <mxGeometry width="50" height="50" relative="1" as="geometry">
            <mxPoint x="1240" y="388.89" as="sourcePoint" />
            <mxPoint x="1700" y="300" as="targetPoint" />
            <Array as="points">
              <mxPoint x="1320" y="389.6" />
              <mxPoint x="1320" y="299.6" />
            </Array>
          </mxGeometry>
        </mxCell>
        <mxCell id="IEQYEWKx81t9l4njgBIL-65" value="" style="endArrow=none;html=1;rounded=0;entryX=0;entryY=0.5;entryDx=0;entryDy=0;" edge="1" parent="1" target="IEQYEWKx81t9l4njgBIL-53">
          <mxGeometry width="50" height="50" relative="1" as="geometry">
            <mxPoint x="1240" y="409.6" as="sourcePoint" />
            <mxPoint x="1700" y="350" as="targetPoint" />
            <Array as="points">
              <mxPoint x="1400" y="410" />
              <mxPoint x="1400" y="350" />
            </Array>
          </mxGeometry>
        </mxCell>
        <mxCell id="IEQYEWKx81t9l4njgBIL-66" value="" style="endArrow=none;html=1;rounded=0;exitX=1;exitY=0.625;exitDx=0;exitDy=0;exitPerimeter=0;entryX=0;entryY=0.5;entryDx=0;entryDy=0;" edge="1" parent="1" target="IEQYEWKx81t9l4njgBIL-54">
          <mxGeometry width="50" height="50" relative="1" as="geometry">
            <mxPoint x="1240" y="428.89" as="sourcePoint" />
            <mxPoint x="1700" y="400" as="targetPoint" />
            <Array as="points">
              <mxPoint x="1320" y="428.6" />
              <mxPoint x="1440" y="430" />
              <mxPoint x="1440" y="400" />
            </Array>
          </mxGeometry>
        </mxCell>
        <mxCell id="IEQYEWKx81t9l4njgBIL-67" value="" style="endArrow=none;html=1;rounded=0;exitX=1;exitY=0.875;exitDx=0;exitDy=0;exitPerimeter=0;entryX=0;entryY=0.5;entryDx=0;entryDy=0;" edge="1" parent="1" target="IEQYEWKx81t9l4njgBIL-55">
          <mxGeometry width="50" height="50" relative="1" as="geometry">
            <mxPoint x="1240" y="448.89" as="sourcePoint" />
            <mxPoint x="1700" y="450" as="targetPoint" />
          </mxGeometry>
        </mxCell>
        <mxCell id="IEQYEWKx81t9l4njgBIL-68" value="" style="endArrow=none;html=1;rounded=0;exitX=0;exitY=0.75;exitDx=0;exitDy=0;" edge="1" parent="1" source="IEQYEWKx81t9l4njgBIL-53">
          <mxGeometry width="50" height="50" relative="1" as="geometry">
            <mxPoint x="1700" y="360" as="sourcePoint" />
            <mxPoint x="1520" y="360" as="targetPoint" />
          </mxGeometry>
        </mxCell>
        <mxCell id="IEQYEWKx81t9l4njgBIL-69" value="" style="endArrow=none;html=1;rounded=0;entryX=0;entryY=0.75;entryDx=0;entryDy=0;" edge="1" parent="1" target="IEQYEWKx81t9l4njgBIL-54">
          <mxGeometry width="50" height="50" relative="1" as="geometry">
            <mxPoint x="1520" y="410" as="sourcePoint" />
            <mxPoint x="1700" y="410" as="targetPoint" />
          </mxGeometry>
        </mxCell>
        <mxCell id="IEQYEWKx81t9l4njgBIL-70" value="" style="endArrow=none;html=1;rounded=0;exitX=0;exitY=0.75;exitDx=0;exitDy=0;" edge="1" parent="1" source="IEQYEWKx81t9l4njgBIL-55">
          <mxGeometry width="50" height="50" relative="1" as="geometry">
            <mxPoint x="1700" y="460" as="sourcePoint" />
            <mxPoint x="1520" y="460" as="targetPoint" />
          </mxGeometry>
        </mxCell>
        <mxCell id="IEQYEWKx81t9l4njgBIL-71" value="" style="endArrow=none;html=1;rounded=0;exitX=0;exitY=0.75;exitDx=0;exitDy=0;" edge="1" parent="1" source="IEQYEWKx81t9l4njgBIL-52">
          <mxGeometry width="50" height="50" relative="1" as="geometry">
            <mxPoint x="1720" y="369.6" as="sourcePoint" />
            <mxPoint x="1520" y="310" as="targetPoint" />
          </mxGeometry>
        </mxCell>
        <mxCell id="IEQYEWKx81t9l4njgBIL-72" value="" style="endArrow=none;html=1;rounded=0;entryX=0;entryY=0.25;entryDx=0;entryDy=0;" edge="1" parent="1" target="IEQYEWKx81t9l4njgBIL-59">
          <mxGeometry width="50" height="50" relative="1" as="geometry">
            <mxPoint x="1280" y="550" as="sourcePoint" />
            <mxPoint x="1700" y="540" as="targetPoint" />
            <Array as="points" />
          </mxGeometry>
        </mxCell>
        <mxCell id="IEQYEWKx81t9l4njgBIL-73" value="" style="endArrow=none;html=1;rounded=0;exitX=1.002;exitY=0.574;exitDx=0;exitDy=0;exitPerimeter=0;entryX=0;entryY=0.25;entryDx=0;entryDy=0;" edge="1" parent="1" source="IEQYEWKx81t9l4njgBIL-21" target="IEQYEWKx81t9l4njgBIL-58">
          <mxGeometry width="50" height="50" relative="1" as="geometry">
            <mxPoint x="1239.5700000000002" y="569.1700000000001" as="sourcePoint" />
            <mxPoint x="1700" y="610" as="targetPoint" />
            <Array as="points">
              <mxPoint x="1480" y="569" />
              <mxPoint x="1480" y="600" />
            </Array>
          </mxGeometry>
        </mxCell>
        <mxCell id="IEQYEWKx81t9l4njgBIL-74" value="" style="endArrow=none;html=1;rounded=0;entryX=0;entryY=0.25;entryDx=0;entryDy=0;" edge="1" parent="1" target="IEQYEWKx81t9l4njgBIL-57">
          <mxGeometry width="50" height="50" relative="1" as="geometry">
            <mxPoint x="1280" y="590" as="sourcePoint" />
            <mxPoint x="1700" y="650" as="targetPoint" />
            <Array as="points">
              <mxPoint x="1440" y="590" />
              <mxPoint x="1440" y="650" />
            </Array>
          </mxGeometry>
        </mxCell>
        <mxCell id="IEQYEWKx81t9l4njgBIL-75" value="" style="endArrow=none;html=1;rounded=0;entryX=0;entryY=0.25;entryDx=0;entryDy=0;" edge="1" parent="1" target="IEQYEWKx81t9l4njgBIL-56">
          <mxGeometry width="50" height="50" relative="1" as="geometry">
            <mxPoint x="1280" y="609" as="sourcePoint" />
            <mxPoint x="1700" y="710" as="targetPoint" />
            <Array as="points">
              <mxPoint x="1360" y="610" />
              <mxPoint x="1360" y="700" />
            </Array>
          </mxGeometry>
        </mxCell>
        <mxCell id="IEQYEWKx81t9l4njgBIL-76" value="" style="endArrow=none;html=1;rounded=0;exitX=0.994;exitY=0.124;exitDx=0;exitDy=0;exitPerimeter=0;entryX=0;entryY=0.5;entryDx=0;entryDy=0;" edge="1" parent="1" source="IEQYEWKx81t9l4njgBIL-22" target="IEQYEWKx81t9l4njgBIL-59">
          <mxGeometry width="50" height="50" relative="1" as="geometry">
            <mxPoint x="1250" y="650" as="sourcePoint" />
            <mxPoint x="1700" y="580" as="targetPoint" />
            <Array as="points">
              <mxPoint x="1320" y="650" />
              <mxPoint x="1319.5700000000002" y="559.1700000000001" />
            </Array>
          </mxGeometry>
        </mxCell>
        <mxCell id="IEQYEWKx81t9l4njgBIL-77" value="" style="endArrow=none;html=1;rounded=0;entryX=0;entryY=0.5;entryDx=0;entryDy=0;" edge="1" parent="1" target="IEQYEWKx81t9l4njgBIL-58">
          <mxGeometry width="50" height="50" relative="1" as="geometry">
            <mxPoint x="1239.5700000000002" y="669.1700000000001" as="sourcePoint" />
            <mxPoint x="1700" y="610" as="targetPoint" />
            <Array as="points">
              <mxPoint x="1400" y="669" />
              <mxPoint x="1400" y="610" />
            </Array>
          </mxGeometry>
        </mxCell>
        <mxCell id="IEQYEWKx81t9l4njgBIL-78" value="" style="endArrow=none;html=1;rounded=0;exitX=1;exitY=0.625;exitDx=0;exitDy=0;exitPerimeter=0;entryX=0;entryY=0.5;entryDx=0;entryDy=0;" edge="1" parent="1" target="IEQYEWKx81t9l4njgBIL-57">
          <mxGeometry width="50" height="50" relative="1" as="geometry">
            <mxPoint x="1239.5700000000002" y="688.46" as="sourcePoint" />
            <mxPoint x="1700" y="670" as="targetPoint" />
            <Array as="points">
              <mxPoint x="1319.5700000000002" y="688.1700000000001" />
              <mxPoint x="1440" y="689" />
              <mxPoint x="1440" y="660" />
            </Array>
          </mxGeometry>
        </mxCell>
        <mxCell id="IEQYEWKx81t9l4njgBIL-79" value="" style="endArrow=none;html=1;rounded=0;exitX=1;exitY=0.875;exitDx=0;exitDy=0;exitPerimeter=0;entryX=0;entryY=0.5;entryDx=0;entryDy=0;" edge="1" parent="1" target="IEQYEWKx81t9l4njgBIL-56">
          <mxGeometry width="50" height="50" relative="1" as="geometry">
            <mxPoint x="1239.5700000000002" y="708.46" as="sourcePoint" />
            <mxPoint x="1700" y="720" as="targetPoint" />
          </mxGeometry>
        </mxCell>
        <mxCell id="IEQYEWKx81t9l4njgBIL-80" value="" style="endArrow=none;html=1;rounded=0;exitX=0;exitY=0.75;exitDx=0;exitDy=0;" edge="1" parent="1" source="IEQYEWKx81t9l4njgBIL-58">
          <mxGeometry width="50" height="50" relative="1" as="geometry">
            <mxPoint x="1700" y="630" as="sourcePoint" />
            <mxPoint x="1520" y="620" as="targetPoint" />
          </mxGeometry>
        </mxCell>
        <mxCell id="IEQYEWKx81t9l4njgBIL-81" value="" style="endArrow=none;html=1;rounded=0;entryX=0;entryY=0.75;entryDx=0;entryDy=0;" edge="1" parent="1" target="IEQYEWKx81t9l4njgBIL-57">
          <mxGeometry width="50" height="50" relative="1" as="geometry">
            <mxPoint x="1520" y="670" as="sourcePoint" />
            <mxPoint x="1700" y="680" as="targetPoint" />
          </mxGeometry>
        </mxCell>
        <mxCell id="IEQYEWKx81t9l4njgBIL-82" value="" style="endArrow=none;html=1;rounded=0;exitX=0;exitY=0.75;exitDx=0;exitDy=0;" edge="1" parent="1" source="IEQYEWKx81t9l4njgBIL-56">
          <mxGeometry width="50" height="50" relative="1" as="geometry">
            <mxPoint x="1700" y="730" as="sourcePoint" />
            <mxPoint x="1520" y="720" as="targetPoint" />
          </mxGeometry>
        </mxCell>
        <mxCell id="IEQYEWKx81t9l4njgBIL-83" value="" style="endArrow=none;html=1;rounded=0;exitX=0;exitY=0.75;exitDx=0;exitDy=0;" edge="1" parent="1" source="IEQYEWKx81t9l4njgBIL-59">
          <mxGeometry width="50" height="50" relative="1" as="geometry">
            <mxPoint x="1700" y="580" as="sourcePoint" />
            <mxPoint x="1520" y="570" as="targetPoint" />
          </mxGeometry>
        </mxCell>
        <mxCell id="IEQYEWKx81t9l4njgBIL-84" value="" style="endArrow=none;html=1;rounded=0;exitX=0;exitY=0.75;exitDx=0;exitDy=0;" edge="1" parent="1" source="IEQYEWKx81t9l4njgBIL-85">
          <mxGeometry width="50" height="50" relative="1" as="geometry">
            <mxPoint x="1640" y="840" as="sourcePoint" />
            <mxPoint x="960" y="800" as="targetPoint" />
            <Array as="points">
              <mxPoint x="1640" y="90" />
              <mxPoint x="1640" y="800" />
            </Array>
          </mxGeometry>
        </mxCell>
        <mxCell id="IEQYEWKx81t9l4njgBIL-85" value="N" style="whiteSpace=wrap;html=1;aspect=fixed;" vertex="1" parent="1">
          <mxGeometry x="1680" y="60" width="40" height="40" as="geometry" />
        </mxCell>
        <mxCell id="IEQYEWKx81t9l4njgBIL-86" value="N" style="whiteSpace=wrap;html=1;aspect=fixed;" vertex="1" parent="1">
          <mxGeometry x="1680" y="110" width="40" height="40" as="geometry" />
        </mxCell>
        <mxCell id="IEQYEWKx81t9l4njgBIL-87" value="N" style="whiteSpace=wrap;html=1;aspect=fixed;" vertex="1" parent="1">
          <mxGeometry x="1680" y="160" width="40" height="40" as="geometry" />
        </mxCell>
        <mxCell id="IEQYEWKx81t9l4njgBIL-88" value="N" style="whiteSpace=wrap;html=1;aspect=fixed;" vertex="1" parent="1">
          <mxGeometry x="1680" y="210" width="40" height="40" as="geometry" />
        </mxCell>
        <mxCell id="IEQYEWKx81t9l4njgBIL-89" value="N" style="whiteSpace=wrap;html=1;aspect=fixed;" vertex="1" parent="1">
          <mxGeometry x="1680" y="280" width="40" height="40" as="geometry" />
        </mxCell>
        <mxCell id="IEQYEWKx81t9l4njgBIL-90" value="N" style="whiteSpace=wrap;html=1;aspect=fixed;" vertex="1" parent="1">
          <mxGeometry x="1680" y="330" width="40" height="40" as="geometry" />
        </mxCell>
        <mxCell id="IEQYEWKx81t9l4njgBIL-91" value="N" style="whiteSpace=wrap;html=1;aspect=fixed;" vertex="1" parent="1">
          <mxGeometry x="1680" y="380.43" width="40" height="40" as="geometry" />
        </mxCell>
        <mxCell id="IEQYEWKx81t9l4njgBIL-92" value="N" style="whiteSpace=wrap;html=1;aspect=fixed;" vertex="1" parent="1">
          <mxGeometry x="1680" y="430" width="40" height="40" as="geometry" />
        </mxCell>
        <mxCell id="IEQYEWKx81t9l4njgBIL-93" value="N" style="whiteSpace=wrap;html=1;aspect=fixed;" vertex="1" parent="1">
          <mxGeometry x="1680" y="690" width="40" height="40" as="geometry" />
        </mxCell>
        <mxCell id="IEQYEWKx81t9l4njgBIL-94" value="N" style="whiteSpace=wrap;html=1;aspect=fixed;" vertex="1" parent="1">
          <mxGeometry x="1680" y="640" width="40" height="40" as="geometry" />
        </mxCell>
        <mxCell id="IEQYEWKx81t9l4njgBIL-95" value="N" style="whiteSpace=wrap;html=1;aspect=fixed;" vertex="1" parent="1">
          <mxGeometry x="1680" y="590" width="40" height="40" as="geometry" />
        </mxCell>
        <mxCell id="IEQYEWKx81t9l4njgBIL-96" value="N" style="whiteSpace=wrap;html=1;aspect=fixed;" vertex="1" parent="1">
          <mxGeometry x="1680" y="540" width="40" height="40" as="geometry" />
        </mxCell>
        <mxCell id="IEQYEWKx81t9l4njgBIL-97" value="" style="endArrow=none;html=1;rounded=0;exitX=0;exitY=0.75;exitDx=0;exitDy=0;" edge="1" parent="1">
          <mxGeometry width="50" height="50" relative="1" as="geometry">
            <mxPoint x="1680" y="139.05" as="sourcePoint" />
            <mxPoint x="1640" y="139.05" as="targetPoint" />
          </mxGeometry>
        </mxCell>
        <mxCell id="IEQYEWKx81t9l4njgBIL-98" value="" style="endArrow=none;html=1;rounded=0;entryX=0;entryY=0.75;entryDx=0;entryDy=0;" edge="1" parent="1">
          <mxGeometry width="50" height="50" relative="1" as="geometry">
            <mxPoint x="1640" y="189.05" as="sourcePoint" />
            <mxPoint x="1680" y="189.05" as="targetPoint" />
          </mxGeometry>
        </mxCell>
        <mxCell id="IEQYEWKx81t9l4njgBIL-99" value="" style="endArrow=none;html=1;rounded=0;exitX=0;exitY=0.75;exitDx=0;exitDy=0;" edge="1" parent="1">
          <mxGeometry width="50" height="50" relative="1" as="geometry">
            <mxPoint x="1680" y="239.05" as="sourcePoint" />
            <mxPoint x="1640" y="239.05" as="targetPoint" />
          </mxGeometry>
        </mxCell>
        <mxCell id="IEQYEWKx81t9l4njgBIL-100" value="" style="endArrow=none;html=1;rounded=0;exitX=0;exitY=0.75;exitDx=0;exitDy=0;" edge="1" parent="1">
          <mxGeometry width="50" height="50" relative="1" as="geometry">
            <mxPoint x="1680" y="359.05" as="sourcePoint" />
            <mxPoint x="1640" y="359.05" as="targetPoint" />
          </mxGeometry>
        </mxCell>
        <mxCell id="IEQYEWKx81t9l4njgBIL-101" value="" style="endArrow=none;html=1;rounded=0;entryX=0;entryY=0.75;entryDx=0;entryDy=0;" edge="1" parent="1">
          <mxGeometry width="50" height="50" relative="1" as="geometry">
            <mxPoint x="1640" y="409.05" as="sourcePoint" />
            <mxPoint x="1680" y="409.05" as="targetPoint" />
          </mxGeometry>
        </mxCell>
        <mxCell id="IEQYEWKx81t9l4njgBIL-102" value="" style="endArrow=none;html=1;rounded=0;exitX=0;exitY=0.75;exitDx=0;exitDy=0;" edge="1" parent="1">
          <mxGeometry width="50" height="50" relative="1" as="geometry">
            <mxPoint x="1680" y="459.05" as="sourcePoint" />
            <mxPoint x="1640" y="459.05" as="targetPoint" />
          </mxGeometry>
        </mxCell>
        <mxCell id="IEQYEWKx81t9l4njgBIL-103" value="" style="endArrow=none;html=1;rounded=0;exitX=0;exitY=0.75;exitDx=0;exitDy=0;" edge="1" parent="1">
          <mxGeometry width="50" height="50" relative="1" as="geometry">
            <mxPoint x="1680" y="309.05" as="sourcePoint" />
            <mxPoint x="1640" y="309.05" as="targetPoint" />
          </mxGeometry>
        </mxCell>
        <mxCell id="IEQYEWKx81t9l4njgBIL-104" value="" style="endArrow=none;html=1;rounded=0;exitX=0;exitY=0.75;exitDx=0;exitDy=0;" edge="1" parent="1">
          <mxGeometry width="50" height="50" relative="1" as="geometry">
            <mxPoint x="1680" y="619.05" as="sourcePoint" />
            <mxPoint x="1640" y="619.05" as="targetPoint" />
          </mxGeometry>
        </mxCell>
        <mxCell id="IEQYEWKx81t9l4njgBIL-105" value="" style="endArrow=none;html=1;rounded=0;entryX=0;entryY=0.75;entryDx=0;entryDy=0;" edge="1" parent="1">
          <mxGeometry width="50" height="50" relative="1" as="geometry">
            <mxPoint x="1640" y="669.05" as="sourcePoint" />
            <mxPoint x="1680" y="669.05" as="targetPoint" />
          </mxGeometry>
        </mxCell>
        <mxCell id="IEQYEWKx81t9l4njgBIL-106" value="" style="endArrow=none;html=1;rounded=0;exitX=0;exitY=0.75;exitDx=0;exitDy=0;" edge="1" parent="1">
          <mxGeometry width="50" height="50" relative="1" as="geometry">
            <mxPoint x="1680" y="719.05" as="sourcePoint" />
            <mxPoint x="1640" y="719.05" as="targetPoint" />
          </mxGeometry>
        </mxCell>
        <mxCell id="IEQYEWKx81t9l4njgBIL-107" value="" style="endArrow=none;html=1;rounded=0;exitX=0;exitY=0.75;exitDx=0;exitDy=0;" edge="1" parent="1">
          <mxGeometry width="50" height="50" relative="1" as="geometry">
            <mxPoint x="1680" y="569.05" as="sourcePoint" />
            <mxPoint x="1640" y="569.05" as="targetPoint" />
          </mxGeometry>
        </mxCell>
        <mxCell id="IEQYEWKx81t9l4njgBIL-108" value="" style="endArrow=none;html=1;rounded=0;entryX=1;entryY=0.25;entryDx=0;entryDy=0;exitX=0;exitY=0.25;exitDx=0;exitDy=0;" edge="1" parent="1" source="IEQYEWKx81t9l4njgBIL-85" target="IEQYEWKx81t9l4njgBIL-48">
          <mxGeometry width="50" height="50" relative="1" as="geometry">
            <mxPoint x="1750" y="210" as="sourcePoint" />
            <mxPoint x="1800" y="160" as="targetPoint" />
          </mxGeometry>
        </mxCell>
        <mxCell id="IEQYEWKx81t9l4njgBIL-109" value="" style="endArrow=none;html=1;rounded=0;entryX=1;entryY=0.25;entryDx=0;entryDy=0;exitX=0;exitY=0.25;exitDx=0;exitDy=0;" edge="1" parent="1">
          <mxGeometry width="50" height="50" relative="1" as="geometry">
            <mxPoint x="1680" y="120" as="sourcePoint" />
            <mxPoint x="1600" y="120" as="targetPoint" />
          </mxGeometry>
        </mxCell>
        <mxCell id="IEQYEWKx81t9l4njgBIL-110" value="" style="endArrow=none;html=1;rounded=0;entryX=1;entryY=0.25;entryDx=0;entryDy=0;exitX=0;exitY=0.25;exitDx=0;exitDy=0;" edge="1" parent="1">
          <mxGeometry width="50" height="50" relative="1" as="geometry">
            <mxPoint x="1680" y="170" as="sourcePoint" />
            <mxPoint x="1600" y="170" as="targetPoint" />
          </mxGeometry>
        </mxCell>
        <mxCell id="IEQYEWKx81t9l4njgBIL-111" value="" style="endArrow=none;html=1;rounded=0;entryX=1;entryY=0.25;entryDx=0;entryDy=0;exitX=0;exitY=0.25;exitDx=0;exitDy=0;" edge="1" parent="1">
          <mxGeometry width="50" height="50" relative="1" as="geometry">
            <mxPoint x="1680" y="220" as="sourcePoint" />
            <mxPoint x="1600" y="220" as="targetPoint" />
          </mxGeometry>
        </mxCell>
        <mxCell id="IEQYEWKx81t9l4njgBIL-112" value="" style="endArrow=none;html=1;rounded=0;entryX=1;entryY=0.25;entryDx=0;entryDy=0;exitX=0;exitY=0.25;exitDx=0;exitDy=0;" edge="1" parent="1">
          <mxGeometry width="50" height="50" relative="1" as="geometry">
            <mxPoint x="1680" y="290" as="sourcePoint" />
            <mxPoint x="1600" y="290" as="targetPoint" />
          </mxGeometry>
        </mxCell>
        <mxCell id="IEQYEWKx81t9l4njgBIL-113" value="" style="endArrow=none;html=1;rounded=0;entryX=1;entryY=0.25;entryDx=0;entryDy=0;exitX=0;exitY=0.25;exitDx=0;exitDy=0;" edge="1" parent="1">
          <mxGeometry width="50" height="50" relative="1" as="geometry">
            <mxPoint x="1680" y="340" as="sourcePoint" />
            <mxPoint x="1600" y="340" as="targetPoint" />
          </mxGeometry>
        </mxCell>
        <mxCell id="IEQYEWKx81t9l4njgBIL-114" value="" style="endArrow=none;html=1;rounded=0;entryX=1;entryY=0.25;entryDx=0;entryDy=0;exitX=0;exitY=0.25;exitDx=0;exitDy=0;" edge="1" parent="1">
          <mxGeometry width="50" height="50" relative="1" as="geometry">
            <mxPoint x="1680" y="390" as="sourcePoint" />
            <mxPoint x="1600" y="390" as="targetPoint" />
          </mxGeometry>
        </mxCell>
        <mxCell id="IEQYEWKx81t9l4njgBIL-115" value="" style="endArrow=none;html=1;rounded=0;entryX=1;entryY=0.25;entryDx=0;entryDy=0;exitX=0;exitY=0.25;exitDx=0;exitDy=0;" edge="1" parent="1">
          <mxGeometry width="50" height="50" relative="1" as="geometry">
            <mxPoint x="1680" y="440" as="sourcePoint" />
            <mxPoint x="1600" y="440" as="targetPoint" />
          </mxGeometry>
        </mxCell>
        <mxCell id="IEQYEWKx81t9l4njgBIL-116" value="" style="endArrow=none;html=1;rounded=0;entryX=1;entryY=0.25;entryDx=0;entryDy=0;exitX=0;exitY=0.25;exitDx=0;exitDy=0;" edge="1" parent="1">
          <mxGeometry width="50" height="50" relative="1" as="geometry">
            <mxPoint x="1680" y="550" as="sourcePoint" />
            <mxPoint x="1600" y="550" as="targetPoint" />
          </mxGeometry>
        </mxCell>
        <mxCell id="IEQYEWKx81t9l4njgBIL-117" value="" style="endArrow=none;html=1;rounded=0;entryX=1;entryY=0.25;entryDx=0;entryDy=0;exitX=0;exitY=0.25;exitDx=0;exitDy=0;" edge="1" parent="1">
          <mxGeometry width="50" height="50" relative="1" as="geometry">
            <mxPoint x="1680" y="600" as="sourcePoint" />
            <mxPoint x="1600" y="600" as="targetPoint" />
          </mxGeometry>
        </mxCell>
        <mxCell id="IEQYEWKx81t9l4njgBIL-118" value="" style="endArrow=none;html=1;rounded=0;entryX=1;entryY=0.25;entryDx=0;entryDy=0;exitX=0;exitY=0.25;exitDx=0;exitDy=0;" edge="1" parent="1">
          <mxGeometry width="50" height="50" relative="1" as="geometry">
            <mxPoint x="1680" y="650" as="sourcePoint" />
            <mxPoint x="1600" y="650" as="targetPoint" />
          </mxGeometry>
        </mxCell>
        <mxCell id="IEQYEWKx81t9l4njgBIL-119" value="" style="endArrow=none;html=1;rounded=0;entryX=1;entryY=0.25;entryDx=0;entryDy=0;exitX=0;exitY=0.25;exitDx=0;exitDy=0;" edge="1" parent="1">
          <mxGeometry width="50" height="50" relative="1" as="geometry">
            <mxPoint x="1680" y="700" as="sourcePoint" />
            <mxPoint x="1600" y="700" as="targetPoint" />
          </mxGeometry>
        </mxCell>
        <mxCell id="IEQYEWKx81t9l4njgBIL-120" value="" style="endArrow=none;html=1;rounded=0;entryX=1;entryY=0.25;entryDx=0;entryDy=0;exitX=0;exitY=0.25;exitDx=0;exitDy=0;" edge="1" parent="1">
          <mxGeometry width="50" height="50" relative="1" as="geometry">
            <mxPoint x="1800" y="80" as="sourcePoint" />
            <mxPoint x="1720" y="80" as="targetPoint" />
          </mxGeometry>
        </mxCell>
        <mxCell id="IEQYEWKx81t9l4njgBIL-121" value="" style="endArrow=none;html=1;rounded=0;entryX=1;entryY=0.25;entryDx=0;entryDy=0;exitX=0;exitY=0.25;exitDx=0;exitDy=0;" edge="1" parent="1">
          <mxGeometry width="50" height="50" relative="1" as="geometry">
            <mxPoint x="1800" y="130" as="sourcePoint" />
            <mxPoint x="1720" y="130" as="targetPoint" />
          </mxGeometry>
        </mxCell>
        <mxCell id="IEQYEWKx81t9l4njgBIL-122" value="" style="endArrow=none;html=1;rounded=0;entryX=1;entryY=0.25;entryDx=0;entryDy=0;exitX=0;exitY=0.25;exitDx=0;exitDy=0;" edge="1" parent="1">
          <mxGeometry width="50" height="50" relative="1" as="geometry">
            <mxPoint x="1800" y="180" as="sourcePoint" />
            <mxPoint x="1720" y="180" as="targetPoint" />
          </mxGeometry>
        </mxCell>
        <mxCell id="IEQYEWKx81t9l4njgBIL-123" value="" style="endArrow=none;html=1;rounded=0;entryX=1;entryY=0.25;entryDx=0;entryDy=0;exitX=0;exitY=0.25;exitDx=0;exitDy=0;" edge="1" parent="1">
          <mxGeometry width="50" height="50" relative="1" as="geometry">
            <mxPoint x="1800" y="230" as="sourcePoint" />
            <mxPoint x="1720" y="230" as="targetPoint" />
          </mxGeometry>
        </mxCell>
        <mxCell id="IEQYEWKx81t9l4njgBIL-124" value="" style="endArrow=none;html=1;rounded=0;entryX=1;entryY=0.25;entryDx=0;entryDy=0;exitX=0;exitY=0.25;exitDx=0;exitDy=0;" edge="1" parent="1">
          <mxGeometry width="50" height="50" relative="1" as="geometry">
            <mxPoint x="1800" y="300" as="sourcePoint" />
            <mxPoint x="1720" y="300" as="targetPoint" />
          </mxGeometry>
        </mxCell>
        <mxCell id="IEQYEWKx81t9l4njgBIL-125" value="" style="endArrow=none;html=1;rounded=0;entryX=1;entryY=0.25;entryDx=0;entryDy=0;exitX=0;exitY=0.25;exitDx=0;exitDy=0;" edge="1" parent="1">
          <mxGeometry width="50" height="50" relative="1" as="geometry">
            <mxPoint x="1800" y="350" as="sourcePoint" />
            <mxPoint x="1720" y="350" as="targetPoint" />
          </mxGeometry>
        </mxCell>
        <mxCell id="IEQYEWKx81t9l4njgBIL-126" value="" style="endArrow=none;html=1;rounded=0;entryX=1;entryY=0.25;entryDx=0;entryDy=0;exitX=0;exitY=0.25;exitDx=0;exitDy=0;" edge="1" parent="1">
          <mxGeometry width="50" height="50" relative="1" as="geometry">
            <mxPoint x="1800" y="400" as="sourcePoint" />
            <mxPoint x="1720" y="400" as="targetPoint" />
          </mxGeometry>
        </mxCell>
        <mxCell id="IEQYEWKx81t9l4njgBIL-127" value="" style="endArrow=none;html=1;rounded=0;entryX=1;entryY=0.25;entryDx=0;entryDy=0;exitX=0;exitY=0.25;exitDx=0;exitDy=0;" edge="1" parent="1">
          <mxGeometry width="50" height="50" relative="1" as="geometry">
            <mxPoint x="1800" y="450" as="sourcePoint" />
            <mxPoint x="1720" y="450" as="targetPoint" />
          </mxGeometry>
        </mxCell>
        <mxCell id="IEQYEWKx81t9l4njgBIL-128" value="" style="endArrow=none;html=1;rounded=0;entryX=1;entryY=0.25;entryDx=0;entryDy=0;exitX=0;exitY=0.25;exitDx=0;exitDy=0;" edge="1" parent="1">
          <mxGeometry width="50" height="50" relative="1" as="geometry">
            <mxPoint x="1800" y="558.75" as="sourcePoint" />
            <mxPoint x="1720" y="558.75" as="targetPoint" />
          </mxGeometry>
        </mxCell>
        <mxCell id="IEQYEWKx81t9l4njgBIL-129" value="" style="endArrow=none;html=1;rounded=0;entryX=1;entryY=0.25;entryDx=0;entryDy=0;exitX=0;exitY=0.25;exitDx=0;exitDy=0;" edge="1" parent="1">
          <mxGeometry width="50" height="50" relative="1" as="geometry">
            <mxPoint x="1800" y="608.75" as="sourcePoint" />
            <mxPoint x="1720" y="608.75" as="targetPoint" />
          </mxGeometry>
        </mxCell>
        <mxCell id="IEQYEWKx81t9l4njgBIL-130" value="" style="endArrow=none;html=1;rounded=0;entryX=1;entryY=0.25;entryDx=0;entryDy=0;exitX=0;exitY=0.25;exitDx=0;exitDy=0;" edge="1" parent="1">
          <mxGeometry width="50" height="50" relative="1" as="geometry">
            <mxPoint x="1800" y="658.75" as="sourcePoint" />
            <mxPoint x="1720" y="658.75" as="targetPoint" />
          </mxGeometry>
        </mxCell>
        <mxCell id="IEQYEWKx81t9l4njgBIL-131" value="" style="endArrow=none;html=1;rounded=0;entryX=1;entryY=0.25;entryDx=0;entryDy=0;exitX=0;exitY=0.25;exitDx=0;exitDy=0;" edge="1" parent="1">
          <mxGeometry width="50" height="50" relative="1" as="geometry">
            <mxPoint x="1800" y="708.75" as="sourcePoint" />
            <mxPoint x="1720" y="708.75" as="targetPoint" />
          </mxGeometry>
        </mxCell>
        <mxCell id="IEQYEWKx81t9l4njgBIL-132" value="CI" style="text;html=1;align=center;verticalAlign=middle;resizable=0;points=[];autosize=1;strokeColor=none;fillColor=none;" vertex="1" parent="1">
          <mxGeometry x="1800" y="65" width="40" height="30" as="geometry" />
        </mxCell>
        <mxCell id="IEQYEWKx81t9l4njgBIL-133" value="CII" style="text;html=1;align=center;verticalAlign=middle;resizable=0;points=[];autosize=1;strokeColor=none;fillColor=none;" vertex="1" parent="1">
          <mxGeometry x="1800" y="115" width="40" height="30" as="geometry" />
        </mxCell>
        <mxCell id="IEQYEWKx81t9l4njgBIL-134" value="CIII" style="text;html=1;align=center;verticalAlign=middle;resizable=0;points=[];autosize=1;strokeColor=none;fillColor=none;" vertex="1" parent="1">
          <mxGeometry x="1800" y="165" width="40" height="30" as="geometry" />
        </mxCell>
        <mxCell id="IEQYEWKx81t9l4njgBIL-135" value="CIV" style="text;html=1;align=center;verticalAlign=middle;resizable=0;points=[];autosize=1;strokeColor=none;fillColor=none;" vertex="1" parent="1">
          <mxGeometry x="1800" y="215" width="40" height="30" as="geometry" />
        </mxCell>
        <mxCell id="IEQYEWKx81t9l4njgBIL-136" value="S1" style="text;html=1;align=center;verticalAlign=middle;resizable=0;points=[];autosize=1;strokeColor=none;fillColor=none;" vertex="1" parent="1">
          <mxGeometry x="1800" y="285" width="40" height="30" as="geometry" />
        </mxCell>
        <mxCell id="IEQYEWKx81t9l4njgBIL-137" value="S2" style="text;html=1;align=center;verticalAlign=middle;resizable=0;points=[];autosize=1;strokeColor=none;fillColor=none;" vertex="1" parent="1">
          <mxGeometry x="1800" y="335" width="40" height="30" as="geometry" />
        </mxCell>
        <mxCell id="IEQYEWKx81t9l4njgBIL-138" value="S3" style="text;html=1;align=center;verticalAlign=middle;resizable=0;points=[];autosize=1;strokeColor=none;fillColor=none;" vertex="1" parent="1">
          <mxGeometry x="1800" y="385.43" width="40" height="30" as="geometry" />
        </mxCell>
        <mxCell id="IEQYEWKx81t9l4njgBIL-139" value="S4" style="text;html=1;align=center;verticalAlign=middle;resizable=0;points=[];autosize=1;strokeColor=none;fillColor=none;" vertex="1" parent="1">
          <mxGeometry x="1800" y="435" width="40" height="30" as="geometry" />
        </mxCell>
        <mxCell id="IEQYEWKx81t9l4njgBIL-140" value="SSA" style="text;html=1;align=center;verticalAlign=middle;resizable=0;points=[];autosize=1;strokeColor=none;fillColor=none;" vertex="1" parent="1">
          <mxGeometry x="1795" y="545" width="50" height="30" as="geometry" />
        </mxCell>
        <mxCell id="IEQYEWKx81t9l4njgBIL-141" value="SSB" style="text;html=1;align=center;verticalAlign=middle;resizable=0;points=[];autosize=1;strokeColor=none;fillColor=none;" vertex="1" parent="1">
          <mxGeometry x="1795" y="595" width="50" height="30" as="geometry" />
        </mxCell>
        <mxCell id="IEQYEWKx81t9l4njgBIL-142" value="SSC" style="text;html=1;align=center;verticalAlign=middle;resizable=0;points=[];autosize=1;strokeColor=none;fillColor=none;" vertex="1" parent="1">
          <mxGeometry x="1795" y="645" width="50" height="30" as="geometry" />
        </mxCell>
        <mxCell id="IEQYEWKx81t9l4njgBIL-143" value="SSD" style="text;html=1;align=center;verticalAlign=middle;resizable=0;points=[];autosize=1;strokeColor=none;fillColor=none;" vertex="1" parent="1">
          <mxGeometry x="1795" y="695" width="50" height="30" as="geometry" />
        </mxCell>
        <mxCell id="IEQYEWKx81t9l4njgBIL-144" value="" style="endArrow=none;html=1;rounded=0;" edge="1" parent="1">
          <mxGeometry width="50" height="50" relative="1" as="geometry">
            <mxPoint x="1880" y="800" as="sourcePoint" />
            <mxPoint x="1840" y="840" as="targetPoint" />
            <Array as="points">
              <mxPoint x="1880" y="840" />
            </Array>
          </mxGeometry>
        </mxCell>
        <mxCell id="IEQYEWKx81t9l4njgBIL-145" value="" style="endArrow=none;html=1;rounded=0;" edge="1" parent="1">
          <mxGeometry width="50" height="50" relative="1" as="geometry">
            <mxPoint x="475" y="760" as="sourcePoint" />
            <mxPoint x="435" y="800" as="targetPoint" />
            <Array as="points">
              <mxPoint x="435" y="760" />
            </Array>
          </mxGeometry>
        </mxCell>
        <mxCell id="IEQYEWKx81t9l4njgBIL-146" value="E1" style="text;html=1;align=center;verticalAlign=middle;resizable=0;points=[];autosize=1;strokeColor=none;fillColor=none;" vertex="1" parent="1">
          <mxGeometry x="475" y="800" width="40" height="30" as="geometry" />
        </mxCell>
        <mxCell id="IEQYEWKx81t9l4njgBIL-147" value="E2" style="text;html=1;align=center;verticalAlign=middle;resizable=0;points=[];autosize=1;strokeColor=none;fillColor=none;" vertex="1" parent="1">
          <mxGeometry x="475" y="830" width="40" height="30" as="geometry" />
        </mxCell>
        <mxCell id="IEQYEWKx81t9l4njgBIL-148" value="" style="verticalLabelPosition=bottom;shadow=0;dashed=0;align=center;html=1;verticalAlign=top;shape=mxgraph.electrical.logic_gates.logic_gate;operation=or;negating=1;negSize=0.15;" vertex="1" parent="1">
          <mxGeometry x="675" y="800" width="100" height="60" as="geometry" />
        </mxCell>
        <mxCell id="IEQYEWKx81t9l4njgBIL-149" value="" style="endArrow=none;html=1;rounded=0;entryX=0;entryY=0.25;entryDx=0;entryDy=0;entryPerimeter=0;" edge="1" parent="1" source="IEQYEWKx81t9l4njgBIL-146" target="IEQYEWKx81t9l4njgBIL-148">
          <mxGeometry width="50" height="50" relative="1" as="geometry">
            <mxPoint x="545" y="780" as="sourcePoint" />
            <mxPoint x="975" y="720" as="targetPoint" />
          </mxGeometry>
        </mxCell>
        <mxCell id="IEQYEWKx81t9l4njgBIL-150" value="" style="endArrow=none;html=1;rounded=0;entryX=0;entryY=0.75;entryDx=0;entryDy=0;entryPerimeter=0;exitX=1;exitY=0.5;exitDx=0;exitDy=0;exitPerimeter=0;" edge="1" parent="1" source="IEQYEWKx81t9l4njgBIL-147" target="IEQYEWKx81t9l4njgBIL-148">
          <mxGeometry width="50" height="50" relative="1" as="geometry">
            <mxPoint x="675" y="790" as="sourcePoint" />
            <mxPoint x="725" y="740" as="targetPoint" />
          </mxGeometry>
        </mxCell>
        <mxCell id="IEQYEWKx81t9l4njgBIL-151" value="" style="endArrow=none;html=1;rounded=0;exitX=0;exitY=0.5;exitDx=0;exitDy=0;exitPerimeter=0;" edge="1" parent="1" source="IEQYEWKx81t9l4njgBIL-161">
          <mxGeometry width="50" height="50" relative="1" as="geometry">
            <mxPoint x="595" y="1120" as="sourcePoint" />
            <mxPoint x="595" y="815" as="targetPoint" />
            <Array as="points">
              <mxPoint x="595" y="1115" />
            </Array>
          </mxGeometry>
        </mxCell>
        <mxCell id="IEQYEWKx81t9l4njgBIL-152" value="" style="endArrow=none;html=1;rounded=0;exitX=0;exitY=0.75;exitDx=0;exitDy=0;exitPerimeter=0;" edge="1" parent="1" source="IEQYEWKx81t9l4njgBIL-155">
          <mxGeometry width="50" height="50" relative="1" as="geometry">
            <mxPoint x="555" y="955" as="sourcePoint" />
            <mxPoint x="555" y="845" as="targetPoint" />
            <Array as="points">
              <mxPoint x="555" y="1145" />
            </Array>
          </mxGeometry>
        </mxCell>
        <mxCell id="IEQYEWKx81t9l4njgBIL-153" value="" style="verticalLabelPosition=bottom;shadow=0;dashed=0;align=center;html=1;verticalAlign=top;shape=mxgraph.electrical.logic_gates.logic_gate;operation=and;" vertex="1" parent="1">
          <mxGeometry x="675" y="900" width="100" height="60" as="geometry" />
        </mxCell>
        <mxCell id="IEQYEWKx81t9l4njgBIL-154" value="" style="verticalLabelPosition=bottom;shadow=0;dashed=0;align=center;html=1;verticalAlign=top;shape=mxgraph.electrical.logic_gates.logic_gate;operation=and;" vertex="1" parent="1">
          <mxGeometry x="675" y="1000" width="100" height="60" as="geometry" />
        </mxCell>
        <mxCell id="IEQYEWKx81t9l4njgBIL-155" value="" style="verticalLabelPosition=bottom;shadow=0;dashed=0;align=center;html=1;verticalAlign=top;shape=mxgraph.electrical.logic_gates.logic_gate;operation=and;" vertex="1" parent="1">
          <mxGeometry x="675" y="1100" width="100" height="60" as="geometry" />
        </mxCell>
        <mxCell id="IEQYEWKx81t9l4njgBIL-156" value="" style="endArrow=none;html=1;rounded=0;entryX=0;entryY=0.75;entryDx=0;entryDy=0;entryPerimeter=0;" edge="1" parent="1" target="IEQYEWKx81t9l4njgBIL-154">
          <mxGeometry width="50" height="50" relative="1" as="geometry">
            <mxPoint x="555" y="1045" as="sourcePoint" />
            <mxPoint x="615" y="940" as="targetPoint" />
          </mxGeometry>
        </mxCell>
        <mxCell id="IEQYEWKx81t9l4njgBIL-157" value="" style="endArrow=none;html=1;rounded=0;entryX=0;entryY=0.5;entryDx=0;entryDy=0;entryPerimeter=0;" edge="1" parent="1" target="IEQYEWKx81t9l4njgBIL-160">
          <mxGeometry width="50" height="50" relative="1" as="geometry">
            <mxPoint x="555" y="945" as="sourcePoint" />
            <mxPoint x="615" y="945" as="targetPoint" />
          </mxGeometry>
        </mxCell>
        <mxCell id="IEQYEWKx81t9l4njgBIL-158" value="" style="endArrow=none;html=1;rounded=0;entryX=0;entryY=0.25;entryDx=0;entryDy=0;entryPerimeter=0;" edge="1" parent="1" target="IEQYEWKx81t9l4njgBIL-153">
          <mxGeometry width="50" height="50" relative="1" as="geometry">
            <mxPoint x="595" y="915" as="sourcePoint" />
            <mxPoint x="605" y="960" as="targetPoint" />
          </mxGeometry>
        </mxCell>
        <mxCell id="IEQYEWKx81t9l4njgBIL-159" value="" style="endArrow=none;html=1;rounded=0;entryX=0;entryY=0.25;entryDx=0;entryDy=0;entryPerimeter=0;" edge="1" parent="1" target="IEQYEWKx81t9l4njgBIL-154">
          <mxGeometry width="50" height="50" relative="1" as="geometry">
            <mxPoint x="595" y="1015" as="sourcePoint" />
            <mxPoint x="615" y="1000" as="targetPoint" />
          </mxGeometry>
        </mxCell>
        <mxCell id="IEQYEWKx81t9l4njgBIL-160" value="" style="verticalLabelPosition=bottom;shadow=0;dashed=0;align=center;html=1;verticalAlign=top;shape=mxgraph.electrical.logic_gates.inverter_2" vertex="1" parent="1">
          <mxGeometry x="625" y="930" width="50" height="30" as="geometry" />
        </mxCell>
        <mxCell id="IEQYEWKx81t9l4njgBIL-161" value="" style="verticalLabelPosition=bottom;shadow=0;dashed=0;align=center;html=1;verticalAlign=top;shape=mxgraph.electrical.logic_gates.inverter_2" vertex="1" parent="1">
          <mxGeometry x="625" y="1100" width="50" height="30" as="geometry" />
        </mxCell>
        <mxCell id="IEQYEWKx81t9l4njgBIL-162" value="" style="endArrow=none;html=1;rounded=0;entryX=1;entryY=0.5;entryDx=0;entryDy=0;entryPerimeter=0;" edge="1" parent="1" target="IEQYEWKx81t9l4njgBIL-148">
          <mxGeometry width="50" height="50" relative="1" as="geometry">
            <mxPoint x="795" y="830" as="sourcePoint" />
            <mxPoint x="685" y="970" as="targetPoint" />
          </mxGeometry>
        </mxCell>
        <mxCell id="IEQYEWKx81t9l4njgBIL-163" value="" style="endArrow=none;html=1;rounded=0;entryX=1;entryY=0.5;entryDx=0;entryDy=0;entryPerimeter=0;" edge="1" parent="1" target="IEQYEWKx81t9l4njgBIL-153">
          <mxGeometry width="50" height="50" relative="1" as="geometry">
            <mxPoint x="795" y="930" as="sourcePoint" />
            <mxPoint x="785" y="840" as="targetPoint" />
          </mxGeometry>
        </mxCell>
        <mxCell id="IEQYEWKx81t9l4njgBIL-164" value="" style="endArrow=none;html=1;rounded=0;entryX=1;entryY=0.5;entryDx=0;entryDy=0;entryPerimeter=0;" edge="1" parent="1" target="IEQYEWKx81t9l4njgBIL-154">
          <mxGeometry width="50" height="50" relative="1" as="geometry">
            <mxPoint x="795" y="1030" as="sourcePoint" />
            <mxPoint x="795" y="850" as="targetPoint" />
          </mxGeometry>
        </mxCell>
        <mxCell id="IEQYEWKx81t9l4njgBIL-165" value="" style="endArrow=none;html=1;rounded=0;entryX=1;entryY=0.5;entryDx=0;entryDy=0;entryPerimeter=0;" edge="1" parent="1" target="IEQYEWKx81t9l4njgBIL-155">
          <mxGeometry width="50" height="50" relative="1" as="geometry">
            <mxPoint x="795" y="1130" as="sourcePoint" />
            <mxPoint x="805" y="860" as="targetPoint" />
          </mxGeometry>
        </mxCell>
        <mxCell id="IEQYEWKx81t9l4njgBIL-166" value="S1" style="text;html=1;align=center;verticalAlign=middle;resizable=0;points=[];autosize=1;strokeColor=none;fillColor=none;" vertex="1" parent="1">
          <mxGeometry x="785" y="815" width="40" height="30" as="geometry" />
        </mxCell>
        <mxCell id="IEQYEWKx81t9l4njgBIL-167" value="S2" style="text;html=1;align=center;verticalAlign=middle;resizable=0;points=[];autosize=1;strokeColor=none;fillColor=none;" vertex="1" parent="1">
          <mxGeometry x="785" y="915" width="40" height="30" as="geometry" />
        </mxCell>
        <mxCell id="IEQYEWKx81t9l4njgBIL-168" value="S3" style="text;html=1;align=center;verticalAlign=middle;resizable=0;points=[];autosize=1;strokeColor=none;fillColor=none;" vertex="1" parent="1">
          <mxGeometry x="785" y="1015" width="40" height="30" as="geometry" />
        </mxCell>
        <mxCell id="IEQYEWKx81t9l4njgBIL-169" value="S4" style="text;html=1;align=center;verticalAlign=middle;resizable=0;points=[];autosize=1;strokeColor=none;fillColor=none;" vertex="1" parent="1">
          <mxGeometry x="785" y="1115" width="40" height="30" as="geometry" />
        </mxCell>
        <mxCell id="IEQYEWKx81t9l4njgBIL-170" value="" style="endArrow=none;html=1;rounded=0;" edge="1" parent="1">
          <mxGeometry width="50" height="50" relative="1" as="geometry">
            <mxPoint x="875" y="1160" as="sourcePoint" />
            <mxPoint x="835" y="1200" as="targetPoint" />
            <Array as="points">
              <mxPoint x="875" y="1200" />
            </Array>
          </mxGeometry>
        </mxCell>
        <mxCell id="IEQYEWKx81t9l4njgBIL-171" value="" style="endArrow=none;html=1;rounded=0;" edge="1" parent="1">
          <mxGeometry width="50" height="50" relative="1" as="geometry">
            <mxPoint x="30" y="760" as="sourcePoint" />
            <mxPoint x="-10" y="800" as="targetPoint" />
            <Array as="points">
              <mxPoint x="-10" y="760" />
            </Array>
          </mxGeometry>
        </mxCell>
        <mxCell id="IEQYEWKx81t9l4njgBIL-172" value="E1" style="text;html=1;align=center;verticalAlign=middle;resizable=0;points=[];autosize=1;strokeColor=none;fillColor=none;" vertex="1" parent="1">
          <mxGeometry x="30" y="800" width="40" height="30" as="geometry" />
        </mxCell>
        <mxCell id="IEQYEWKx81t9l4njgBIL-173" value="E2" style="text;html=1;align=center;verticalAlign=middle;resizable=0;points=[];autosize=1;strokeColor=none;fillColor=none;" vertex="1" parent="1">
          <mxGeometry x="30" y="830" width="40" height="30" as="geometry" />
        </mxCell>
        <mxCell id="IEQYEWKx81t9l4njgBIL-174" value="" style="verticalLabelPosition=bottom;shadow=0;dashed=0;align=center;html=1;verticalAlign=top;shape=mxgraph.electrical.logic_gates.logic_gate;operation=or;negating=1;negSize=0.15;" vertex="1" parent="1">
          <mxGeometry x="230" y="800" width="100" height="60" as="geometry" />
        </mxCell>
        <mxCell id="IEQYEWKx81t9l4njgBIL-175" value="" style="endArrow=none;html=1;rounded=0;entryX=0;entryY=0.25;entryDx=0;entryDy=0;entryPerimeter=0;" edge="1" parent="1" source="IEQYEWKx81t9l4njgBIL-172" target="IEQYEWKx81t9l4njgBIL-174">
          <mxGeometry width="50" height="50" relative="1" as="geometry">
            <mxPoint x="100" y="780" as="sourcePoint" />
            <mxPoint x="530" y="720" as="targetPoint" />
          </mxGeometry>
        </mxCell>
        <mxCell id="IEQYEWKx81t9l4njgBIL-176" value="" style="endArrow=none;html=1;rounded=0;entryX=0;entryY=0.75;entryDx=0;entryDy=0;entryPerimeter=0;exitX=1;exitY=0.5;exitDx=0;exitDy=0;exitPerimeter=0;" edge="1" parent="1" source="IEQYEWKx81t9l4njgBIL-173" target="IEQYEWKx81t9l4njgBIL-174">
          <mxGeometry width="50" height="50" relative="1" as="geometry">
            <mxPoint x="230" y="790" as="sourcePoint" />
            <mxPoint x="280" y="740" as="targetPoint" />
          </mxGeometry>
        </mxCell>
        <mxCell id="IEQYEWKx81t9l4njgBIL-177" value="" style="endArrow=none;html=1;rounded=0;exitX=0;exitY=0.25;exitDx=0;exitDy=0;exitPerimeter=0;" edge="1" parent="1" source="IEQYEWKx81t9l4njgBIL-181">
          <mxGeometry width="50" height="50" relative="1" as="geometry">
            <mxPoint x="150" y="1120" as="sourcePoint" />
            <mxPoint x="150" y="815" as="targetPoint" />
            <Array as="points">
              <mxPoint x="150" y="1115" />
            </Array>
          </mxGeometry>
        </mxCell>
        <mxCell id="IEQYEWKx81t9l4njgBIL-178" value="" style="endArrow=none;html=1;rounded=0;exitX=0;exitY=0.75;exitDx=0;exitDy=0;exitPerimeter=0;" edge="1" parent="1" source="IEQYEWKx81t9l4njgBIL-181">
          <mxGeometry width="50" height="50" relative="1" as="geometry">
            <mxPoint x="110" y="955" as="sourcePoint" />
            <mxPoint x="110" y="845" as="targetPoint" />
            <Array as="points">
              <mxPoint x="110" y="1145" />
            </Array>
          </mxGeometry>
        </mxCell>
        <mxCell id="IEQYEWKx81t9l4njgBIL-179" value="" style="verticalLabelPosition=bottom;shadow=0;dashed=0;align=center;html=1;verticalAlign=top;shape=mxgraph.electrical.logic_gates.logic_gate;operation=and;" vertex="1" parent="1">
          <mxGeometry x="230" y="900" width="100" height="60" as="geometry" />
        </mxCell>
        <mxCell id="IEQYEWKx81t9l4njgBIL-180" value="" style="verticalLabelPosition=bottom;shadow=0;dashed=0;align=center;html=1;verticalAlign=top;shape=mxgraph.electrical.logic_gates.logic_gate;operation=and;" vertex="1" parent="1">
          <mxGeometry x="230" y="1000" width="100" height="60" as="geometry" />
        </mxCell>
        <mxCell id="IEQYEWKx81t9l4njgBIL-181" value="" style="verticalLabelPosition=bottom;shadow=0;dashed=0;align=center;html=1;verticalAlign=top;shape=mxgraph.electrical.logic_gates.logic_gate;operation=and;" vertex="1" parent="1">
          <mxGeometry x="230" y="1100" width="100" height="60" as="geometry" />
        </mxCell>
        <mxCell id="IEQYEWKx81t9l4njgBIL-182" value="" style="endArrow=none;html=1;rounded=0;entryX=0;entryY=0.75;entryDx=0;entryDy=0;entryPerimeter=0;" edge="1" parent="1" target="IEQYEWKx81t9l4njgBIL-180">
          <mxGeometry width="50" height="50" relative="1" as="geometry">
            <mxPoint x="110" y="1045" as="sourcePoint" />
            <mxPoint x="170" y="940" as="targetPoint" />
          </mxGeometry>
        </mxCell>
        <mxCell id="IEQYEWKx81t9l4njgBIL-183" value="" style="endArrow=none;html=1;rounded=0;entryX=0;entryY=0.5;entryDx=0;entryDy=0;entryPerimeter=0;" edge="1" parent="1" target="IEQYEWKx81t9l4njgBIL-186">
          <mxGeometry width="50" height="50" relative="1" as="geometry">
            <mxPoint x="110" y="945" as="sourcePoint" />
            <mxPoint x="170" y="945" as="targetPoint" />
          </mxGeometry>
        </mxCell>
        <mxCell id="IEQYEWKx81t9l4njgBIL-184" value="" style="endArrow=none;html=1;rounded=0;entryX=0;entryY=0.25;entryDx=0;entryDy=0;entryPerimeter=0;" edge="1" parent="1" target="IEQYEWKx81t9l4njgBIL-179">
          <mxGeometry width="50" height="50" relative="1" as="geometry">
            <mxPoint x="150" y="915" as="sourcePoint" />
            <mxPoint x="160" y="960" as="targetPoint" />
          </mxGeometry>
        </mxCell>
        <mxCell id="IEQYEWKx81t9l4njgBIL-185" value="" style="endArrow=none;html=1;rounded=0;entryX=0;entryY=0.5;entryDx=0;entryDy=0;entryPerimeter=0;" edge="1" parent="1" target="IEQYEWKx81t9l4njgBIL-187">
          <mxGeometry width="50" height="50" relative="1" as="geometry">
            <mxPoint x="150" y="1015" as="sourcePoint" />
            <mxPoint x="170" y="1000" as="targetPoint" />
          </mxGeometry>
        </mxCell>
        <mxCell id="IEQYEWKx81t9l4njgBIL-186" value="" style="verticalLabelPosition=bottom;shadow=0;dashed=0;align=center;html=1;verticalAlign=top;shape=mxgraph.electrical.logic_gates.inverter_2" vertex="1" parent="1">
          <mxGeometry x="180" y="930" width="50" height="30" as="geometry" />
        </mxCell>
        <mxCell id="IEQYEWKx81t9l4njgBIL-187" value="" style="verticalLabelPosition=bottom;shadow=0;dashed=0;align=center;html=1;verticalAlign=top;shape=mxgraph.electrical.logic_gates.inverter_2" vertex="1" parent="1">
          <mxGeometry x="180" y="1000" width="50" height="30" as="geometry" />
        </mxCell>
        <mxCell id="IEQYEWKx81t9l4njgBIL-188" value="" style="endArrow=none;html=1;rounded=0;entryX=1;entryY=0.5;entryDx=0;entryDy=0;entryPerimeter=0;" edge="1" parent="1" target="IEQYEWKx81t9l4njgBIL-174">
          <mxGeometry width="50" height="50" relative="1" as="geometry">
            <mxPoint x="350" y="830" as="sourcePoint" />
            <mxPoint x="240" y="970" as="targetPoint" />
          </mxGeometry>
        </mxCell>
        <mxCell id="IEQYEWKx81t9l4njgBIL-189" value="" style="endArrow=none;html=1;rounded=0;entryX=1;entryY=0.5;entryDx=0;entryDy=0;entryPerimeter=0;" edge="1" parent="1" target="IEQYEWKx81t9l4njgBIL-179">
          <mxGeometry width="50" height="50" relative="1" as="geometry">
            <mxPoint x="350" y="930" as="sourcePoint" />
            <mxPoint x="340" y="840" as="targetPoint" />
          </mxGeometry>
        </mxCell>
        <mxCell id="IEQYEWKx81t9l4njgBIL-190" value="" style="endArrow=none;html=1;rounded=0;entryX=1;entryY=0.5;entryDx=0;entryDy=0;entryPerimeter=0;" edge="1" parent="1" target="IEQYEWKx81t9l4njgBIL-180">
          <mxGeometry width="50" height="50" relative="1" as="geometry">
            <mxPoint x="350" y="1030" as="sourcePoint" />
            <mxPoint x="350" y="850" as="targetPoint" />
          </mxGeometry>
        </mxCell>
        <mxCell id="IEQYEWKx81t9l4njgBIL-191" value="" style="endArrow=none;html=1;rounded=0;entryX=1;entryY=0.5;entryDx=0;entryDy=0;entryPerimeter=0;" edge="1" parent="1" target="IEQYEWKx81t9l4njgBIL-181">
          <mxGeometry width="50" height="50" relative="1" as="geometry">
            <mxPoint x="350" y="1130" as="sourcePoint" />
            <mxPoint x="360" y="860" as="targetPoint" />
          </mxGeometry>
        </mxCell>
        <mxCell id="IEQYEWKx81t9l4njgBIL-192" value="S1" style="text;html=1;align=center;verticalAlign=middle;resizable=0;points=[];autosize=1;strokeColor=none;fillColor=none;" vertex="1" parent="1">
          <mxGeometry x="340" y="815" width="40" height="30" as="geometry" />
        </mxCell>
        <mxCell id="IEQYEWKx81t9l4njgBIL-193" value="S2" style="text;html=1;align=center;verticalAlign=middle;resizable=0;points=[];autosize=1;strokeColor=none;fillColor=none;" vertex="1" parent="1">
          <mxGeometry x="340" y="915" width="40" height="30" as="geometry" />
        </mxCell>
        <mxCell id="IEQYEWKx81t9l4njgBIL-194" value="S3" style="text;html=1;align=center;verticalAlign=middle;resizable=0;points=[];autosize=1;strokeColor=none;fillColor=none;" vertex="1" parent="1">
          <mxGeometry x="340" y="1015" width="40" height="30" as="geometry" />
        </mxCell>
        <mxCell id="IEQYEWKx81t9l4njgBIL-195" value="S4" style="text;html=1;align=center;verticalAlign=middle;resizable=0;points=[];autosize=1;strokeColor=none;fillColor=none;" vertex="1" parent="1">
          <mxGeometry x="340" y="1115" width="40" height="30" as="geometry" />
        </mxCell>
        <mxCell id="IEQYEWKx81t9l4njgBIL-196" value="" style="endArrow=none;html=1;rounded=0;" edge="1" parent="1">
          <mxGeometry width="50" height="50" relative="1" as="geometry">
            <mxPoint x="430" y="1160" as="sourcePoint" />
            <mxPoint x="390" y="1200" as="targetPoint" />
            <Array as="points">
              <mxPoint x="430" y="1200" />
            </Array>
          </mxGeometry>
        </mxCell>
        <mxCell id="IEQYEWKx81t9l4njgBIL-197" value="B" style="text;html=1;align=center;verticalAlign=middle;resizable=0;points=[];autosize=1;strokeColor=none;fillColor=none;" vertex="1" parent="1">
          <mxGeometry y="765" width="30" height="30" as="geometry" />
        </mxCell>
        <mxCell id="IEQYEWKx81t9l4njgBIL-198" value="GC" style="text;html=1;align=center;verticalAlign=middle;resizable=0;points=[];autosize=1;strokeColor=none;fillColor=none;" vertex="1" parent="1">
          <mxGeometry x="440" y="765" width="40" height="30" as="geometry" />
        </mxCell>
        <mxCell id="IEQYEWKx81t9l4njgBIL-237" value="" style="endArrow=none;html=1;rounded=0;" edge="1" parent="1">
          <mxGeometry width="50" height="50" relative="1" as="geometry">
            <mxPoint x="40" y="1240" as="sourcePoint" />
            <mxPoint y="1280" as="targetPoint" />
            <Array as="points">
              <mxPoint y="1240" />
            </Array>
          </mxGeometry>
        </mxCell>
        <mxCell id="IEQYEWKx81t9l4njgBIL-238" value="" style="endArrow=none;html=1;rounded=0;" edge="1" parent="1">
          <mxGeometry width="50" height="50" relative="1" as="geometry">
            <mxPoint x="720" y="1600" as="sourcePoint" />
            <mxPoint x="680" y="1640" as="targetPoint" />
            <Array as="points">
              <mxPoint x="720" y="1640" />
            </Array>
          </mxGeometry>
        </mxCell>
        <mxCell id="IEQYEWKx81t9l4njgBIL-239" value="E1" style="text;html=1;align=center;verticalAlign=middle;resizable=0;points=[];autosize=1;strokeColor=none;fillColor=none;" vertex="1" parent="1">
          <mxGeometry x="40" y="1290" width="40" height="30" as="geometry" />
        </mxCell>
        <mxCell id="IEQYEWKx81t9l4njgBIL-240" value="E2" style="text;html=1;align=center;verticalAlign=middle;resizable=0;points=[];autosize=1;strokeColor=none;fillColor=none;" vertex="1" parent="1">
          <mxGeometry x="40" y="1310" width="40" height="30" as="geometry" />
        </mxCell>
        <mxCell id="IEQYEWKx81t9l4njgBIL-241" value="E3" style="text;html=1;align=center;verticalAlign=middle;resizable=0;points=[];autosize=1;strokeColor=none;fillColor=none;" vertex="1" parent="1">
          <mxGeometry x="40" y="1400" width="40" height="30" as="geometry" />
        </mxCell>
        <mxCell id="IEQYEWKx81t9l4njgBIL-242" value="E4" style="text;html=1;align=center;verticalAlign=middle;resizable=0;points=[];autosize=1;strokeColor=none;fillColor=none;" vertex="1" parent="1">
          <mxGeometry x="40" y="1480" width="40" height="30" as="geometry" />
        </mxCell>
        <mxCell id="IEQYEWKx81t9l4njgBIL-243" value="" style="verticalLabelPosition=bottom;shadow=0;dashed=0;align=center;html=1;verticalAlign=top;shape=mxgraph.electrical.logic_gates.logic_gate;operation=xor;negating=1;negSize=0.15;" vertex="1" parent="1">
          <mxGeometry x="230" y="1280" width="200" height="120" as="geometry" />
        </mxCell>
        <mxCell id="IEQYEWKx81t9l4njgBIL-244" value="" style="endArrow=none;html=1;rounded=0;entryX=0;entryY=0.25;entryDx=0;entryDy=0;entryPerimeter=0;" edge="1" parent="1" target="IEQYEWKx81t9l4njgBIL-243">
          <mxGeometry width="50" height="50" relative="1" as="geometry">
            <mxPoint x="80" y="1310" as="sourcePoint" />
            <mxPoint x="350" y="1370" as="targetPoint" />
          </mxGeometry>
        </mxCell>
        <mxCell id="IEQYEWKx81t9l4njgBIL-245" value="" style="endArrow=none;html=1;rounded=0;entryX=0.231;entryY=0.332;entryDx=0;entryDy=0;entryPerimeter=0;" edge="1" parent="1" target="IEQYEWKx81t9l4njgBIL-243">
          <mxGeometry width="50" height="50" relative="1" as="geometry">
            <mxPoint x="80" y="1320" as="sourcePoint" />
            <mxPoint x="260" y="1310" as="targetPoint" />
            <Array as="points" />
          </mxGeometry>
        </mxCell>
        <mxCell id="IEQYEWKx81t9l4njgBIL-246" value="" style="endArrow=none;html=1;rounded=0;entryX=0.234;entryY=0.501;entryDx=0;entryDy=0;entryPerimeter=0;" edge="1" parent="1" target="IEQYEWKx81t9l4njgBIL-243">
          <mxGeometry width="50" height="50" relative="1" as="geometry">
            <mxPoint x="80" y="1420" as="sourcePoint" />
            <mxPoint x="350" y="1360" as="targetPoint" />
            <Array as="points">
              <mxPoint x="140" y="1420" />
              <mxPoint x="140" y="1340" />
            </Array>
          </mxGeometry>
        </mxCell>
        <mxCell id="IEQYEWKx81t9l4njgBIL-247" value="" style="verticalLabelPosition=bottom;shadow=0;dashed=0;align=center;html=1;verticalAlign=top;shape=mxgraph.electrical.logic_gates.logic_gate;operation=xor;" vertex="1" parent="1">
          <mxGeometry x="230" y="1420" width="200" height="120" as="geometry" />
        </mxCell>
        <mxCell id="IEQYEWKx81t9l4njgBIL-248" value="" style="endArrow=none;html=1;rounded=0;exitX=0.23;exitY=0.495;exitDx=0;exitDy=0;exitPerimeter=0;" edge="1" parent="1" source="IEQYEWKx81t9l4njgBIL-247">
          <mxGeometry width="50" height="50" relative="1" as="geometry">
            <mxPoint x="220" y="1490" as="sourcePoint" />
            <mxPoint x="140" y="1420" as="targetPoint" />
            <Array as="points">
              <mxPoint x="140" y="1479" />
            </Array>
          </mxGeometry>
        </mxCell>
        <mxCell id="IEQYEWKx81t9l4njgBIL-249" value="" style="endArrow=none;html=1;rounded=0;exitX=0;exitY=0.25;exitDx=0;exitDy=0;exitPerimeter=0;" edge="1" parent="1" source="IEQYEWKx81t9l4njgBIL-247">
          <mxGeometry width="50" height="50" relative="1" as="geometry">
            <mxPoint x="210" y="1415" as="sourcePoint" />
            <mxPoint x="220" y="1310" as="targetPoint" />
            <Array as="points">
              <mxPoint x="220" y="1450" />
            </Array>
          </mxGeometry>
        </mxCell>
        <mxCell id="IEQYEWKx81t9l4njgBIL-250" value="" style="endArrow=none;html=1;rounded=0;exitX=0.221;exitY=0.333;exitDx=0;exitDy=0;exitPerimeter=0;" edge="1" parent="1" source="IEQYEWKx81t9l4njgBIL-247">
          <mxGeometry width="50" height="50" relative="1" as="geometry">
            <mxPoint x="270" y="1470" as="sourcePoint" />
            <mxPoint x="200" y="1320" as="targetPoint" />
            <Array as="points">
              <mxPoint x="200" y="1460" />
            </Array>
          </mxGeometry>
        </mxCell>
        <mxCell id="IEQYEWKx81t9l4njgBIL-251" value="" style="endArrow=none;html=1;rounded=0;exitX=0;exitY=0.5;exitDx=0;exitDy=0;exitPerimeter=0;" edge="1" parent="1" source="IEQYEWKx81t9l4njgBIL-252">
          <mxGeometry width="50" height="50" relative="1" as="geometry">
            <mxPoint x="330" y="1585" as="sourcePoint" />
            <mxPoint x="80" y="1571" as="targetPoint" />
          </mxGeometry>
        </mxCell>
        <mxCell id="IEQYEWKx81t9l4njgBIL-252" value="" style="verticalLabelPosition=bottom;shadow=0;dashed=0;align=center;html=1;verticalAlign=top;shape=mxgraph.electrical.logic_gates.inverter_2" vertex="1" parent="1">
          <mxGeometry x="340" y="1551" width="60" height="40" as="geometry" />
        </mxCell>
        <mxCell id="IEQYEWKx81t9l4njgBIL-253" value="" style="endArrow=none;html=1;rounded=0;entryX=0;entryY=0.75;entryDx=0;entryDy=0;entryPerimeter=0;" edge="1" parent="1" target="IEQYEWKx81t9l4njgBIL-255">
          <mxGeometry width="50" height="50" relative="1" as="geometry">
            <mxPoint x="290" y="1571" as="sourcePoint" />
            <mxPoint x="590.0000000000002" y="1435" as="targetPoint" />
            <Array as="points">
              <mxPoint x="290" y="1605" />
              <mxPoint x="530" y="1605" />
              <mxPoint x="530" y="1410" />
            </Array>
          </mxGeometry>
        </mxCell>
        <mxCell id="IEQYEWKx81t9l4njgBIL-254" value="" style="verticalLabelPosition=bottom;shadow=0;dashed=0;align=center;html=1;verticalAlign=top;shape=mxgraph.electrical.logic_gates.logic_gate;operation=and;" vertex="1" parent="1">
          <mxGeometry x="590" y="1330" width="70" height="40" as="geometry" />
        </mxCell>
        <mxCell id="IEQYEWKx81t9l4njgBIL-255" value="" style="verticalLabelPosition=bottom;shadow=0;dashed=0;align=center;html=1;verticalAlign=top;shape=mxgraph.electrical.logic_gates.logic_gate;operation=and;" vertex="1" parent="1">
          <mxGeometry x="590" y="1380" width="70" height="40" as="geometry" />
        </mxCell>
        <mxCell id="IEQYEWKx81t9l4njgBIL-256" value="" style="verticalLabelPosition=bottom;shadow=0;dashed=0;align=center;html=1;verticalAlign=top;shape=mxgraph.electrical.logic_gates.logic_gate;operation=and;" vertex="1" parent="1">
          <mxGeometry x="590" y="1470" width="70" height="40" as="geometry" />
        </mxCell>
        <mxCell id="IEQYEWKx81t9l4njgBIL-257" value="" style="verticalLabelPosition=bottom;shadow=0;dashed=0;align=center;html=1;verticalAlign=top;shape=mxgraph.electrical.logic_gates.logic_gate;operation=and;" vertex="1" parent="1">
          <mxGeometry x="590" y="1540" width="70" height="40" as="geometry" />
        </mxCell>
        <mxCell id="IEQYEWKx81t9l4njgBIL-258" value="" style="endArrow=none;html=1;rounded=0;entryX=0;entryY=0.75;entryDx=0;entryDy=0;entryPerimeter=0;" edge="1" parent="1" source="IEQYEWKx81t9l4njgBIL-252" target="IEQYEWKx81t9l4njgBIL-257">
          <mxGeometry width="50" height="50" relative="1" as="geometry">
            <mxPoint x="440" y="1515" as="sourcePoint" />
            <mxPoint x="490" y="1465" as="targetPoint" />
          </mxGeometry>
        </mxCell>
        <mxCell id="IEQYEWKx81t9l4njgBIL-259" value="" style="endArrow=none;html=1;rounded=0;entryX=0;entryY=0.75;entryDx=0;entryDy=0;entryPerimeter=0;" edge="1" parent="1" target="IEQYEWKx81t9l4njgBIL-254">
          <mxGeometry width="50" height="50" relative="1" as="geometry">
            <mxPoint x="450" y="1570" as="sourcePoint" />
            <mxPoint x="590" y="1366" as="targetPoint" />
            <Array as="points">
              <mxPoint x="450" y="1360" />
            </Array>
          </mxGeometry>
        </mxCell>
        <mxCell id="IEQYEWKx81t9l4njgBIL-260" value="" style="endArrow=none;html=1;rounded=0;entryX=0;entryY=0.25;entryDx=0;entryDy=0;entryPerimeter=0;exitX=1;exitY=0.5;exitDx=0;exitDy=0;exitPerimeter=0;" edge="1" parent="1" source="IEQYEWKx81t9l4njgBIL-243" target="IEQYEWKx81t9l4njgBIL-254">
          <mxGeometry width="50" height="50" relative="1" as="geometry">
            <mxPoint x="440" y="1340" as="sourcePoint" />
            <mxPoint x="490" y="1440" as="targetPoint" />
          </mxGeometry>
        </mxCell>
        <mxCell id="IEQYEWKx81t9l4njgBIL-261" value="" style="endArrow=none;html=1;rounded=0;entryX=0;entryY=0.25;entryDx=0;entryDy=0;entryPerimeter=0;" edge="1" parent="1" target="IEQYEWKx81t9l4njgBIL-255">
          <mxGeometry width="50" height="50" relative="1" as="geometry">
            <mxPoint x="490" y="1340" as="sourcePoint" />
            <mxPoint x="490" y="1430" as="targetPoint" />
            <Array as="points">
              <mxPoint x="490" y="1390" />
            </Array>
          </mxGeometry>
        </mxCell>
        <mxCell id="IEQYEWKx81t9l4njgBIL-262" value="" style="endArrow=none;html=1;rounded=0;entryX=0;entryY=0.25;entryDx=0;entryDy=0;entryPerimeter=0;exitX=1;exitY=0.5;exitDx=0;exitDy=0;exitPerimeter=0;" edge="1" parent="1" source="IEQYEWKx81t9l4njgBIL-247" target="IEQYEWKx81t9l4njgBIL-256">
          <mxGeometry width="50" height="50" relative="1" as="geometry">
            <mxPoint x="440" y="1470" as="sourcePoint" />
            <mxPoint x="490" y="1465" as="targetPoint" />
          </mxGeometry>
        </mxCell>
        <mxCell id="IEQYEWKx81t9l4njgBIL-263" value="" style="endArrow=none;html=1;rounded=0;entryX=0;entryY=0.25;entryDx=0;entryDy=0;entryPerimeter=0;" edge="1" parent="1" target="IEQYEWKx81t9l4njgBIL-257">
          <mxGeometry width="50" height="50" relative="1" as="geometry">
            <mxPoint x="490" y="1480" as="sourcePoint" />
            <mxPoint x="510" y="1550" as="targetPoint" />
            <Array as="points">
              <mxPoint x="490" y="1550" />
            </Array>
          </mxGeometry>
        </mxCell>
        <mxCell id="IEQYEWKx81t9l4njgBIL-264" value="" style="endArrow=none;html=1;rounded=0;entryX=0;entryY=0.75;entryDx=0;entryDy=0;entryPerimeter=0;" edge="1" parent="1" target="IEQYEWKx81t9l4njgBIL-256">
          <mxGeometry width="50" height="50" relative="1" as="geometry">
            <mxPoint x="530" y="1500" as="sourcePoint" />
            <mxPoint x="430" y="1475" as="targetPoint" />
          </mxGeometry>
        </mxCell>
        <mxCell id="IEQYEWKx81t9l4njgBIL-265" value="S1" style="text;html=1;align=center;verticalAlign=middle;resizable=0;points=[];autosize=1;strokeColor=none;fillColor=none;" vertex="1" parent="1">
          <mxGeometry x="660" y="1335" width="40" height="30" as="geometry" />
        </mxCell>
        <mxCell id="IEQYEWKx81t9l4njgBIL-266" value="S2" style="text;html=1;align=center;verticalAlign=middle;resizable=0;points=[];autosize=1;strokeColor=none;fillColor=none;" vertex="1" parent="1">
          <mxGeometry x="660" y="1385" width="40" height="30" as="geometry" />
        </mxCell>
        <mxCell id="IEQYEWKx81t9l4njgBIL-267" value="S3" style="text;html=1;align=center;verticalAlign=middle;resizable=0;points=[];autosize=1;strokeColor=none;fillColor=none;" vertex="1" parent="1">
          <mxGeometry x="660" y="1485" width="40" height="30" as="geometry" />
        </mxCell>
        <mxCell id="IEQYEWKx81t9l4njgBIL-268" value="S4" style="text;html=1;align=center;verticalAlign=middle;resizable=0;points=[];autosize=1;strokeColor=none;fillColor=none;" vertex="1" parent="1">
          <mxGeometry x="660" y="1545" width="40" height="30" as="geometry" />
        </mxCell>
        <mxCell id="IEQYEWKx81t9l4njgBIL-269" value="E5" style="text;html=1;align=center;verticalAlign=middle;resizable=0;points=[];autosize=1;strokeColor=none;fillColor=none;" vertex="1" parent="1">
          <mxGeometry x="40" y="1500" width="40" height="30" as="geometry" />
        </mxCell>
        <mxCell id="IEQYEWKx81t9l4njgBIL-270" value="" style="endArrow=none;html=1;rounded=0;exitX=0.22;exitY=0.66;exitDx=0;exitDy=0;exitPerimeter=0;" edge="1" parent="1" source="IEQYEWKx81t9l4njgBIL-247">
          <mxGeometry width="50" height="50" relative="1" as="geometry">
            <mxPoint x="320" y="1450" as="sourcePoint" />
            <mxPoint x="80" y="1500" as="targetPoint" />
          </mxGeometry>
        </mxCell>
        <mxCell id="IEQYEWKx81t9l4njgBIL-271" value="" style="endArrow=none;html=1;rounded=0;exitX=0.222;exitY=0.668;exitDx=0;exitDy=0;exitPerimeter=0;" edge="1" parent="1" source="IEQYEWKx81t9l4njgBIL-243">
          <mxGeometry width="50" height="50" relative="1" as="geometry">
            <mxPoint x="320" y="1450" as="sourcePoint" />
            <mxPoint x="160" y="1500" as="targetPoint" />
            <Array as="points">
              <mxPoint x="160" y="1360" />
            </Array>
          </mxGeometry>
        </mxCell>
        <mxCell id="IEQYEWKx81t9l4njgBIL-272" value="" style="endArrow=none;html=1;rounded=0;entryX=0;entryY=0.75;entryDx=0;entryDy=0;entryPerimeter=0;" edge="1" parent="1" target="IEQYEWKx81t9l4njgBIL-247">
          <mxGeometry width="50" height="50" relative="1" as="geometry">
            <mxPoint x="80" y="1510" as="sourcePoint" />
            <mxPoint x="430" y="1490" as="targetPoint" />
          </mxGeometry>
        </mxCell>
        <mxCell id="IEQYEWKx81t9l4njgBIL-273" value="" style="endArrow=none;html=1;rounded=0;entryX=0;entryY=0.75;entryDx=0;entryDy=0;entryPerimeter=0;" edge="1" parent="1" target="IEQYEWKx81t9l4njgBIL-243">
          <mxGeometry width="50" height="50" relative="1" as="geometry">
            <mxPoint x="180" y="1510" as="sourcePoint" />
            <mxPoint x="560" y="1390" as="targetPoint" />
            <Array as="points">
              <mxPoint x="180" y="1370" />
            </Array>
          </mxGeometry>
        </mxCell>
        <mxCell id="IEQYEWKx81t9l4njgBIL-274" value="E6" style="text;html=1;align=center;verticalAlign=middle;resizable=0;points=[];autosize=1;strokeColor=none;fillColor=none;" vertex="1" parent="1">
          <mxGeometry x="40" y="1551" width="40" height="30" as="geometry" />
        </mxCell>
        <mxCell id="IEQYEWKx81t9l4njgBIL-275" value="GSS" style="text;html=1;align=center;verticalAlign=middle;resizable=0;points=[];autosize=1;strokeColor=none;fillColor=none;" vertex="1" parent="1">
          <mxGeometry x="-5" y="1245" width="50" height="30" as="geometry" />
        </mxCell>
        <mxCell id="IEQYEWKx81t9l4njgBIL-276" value="" style="endArrow=none;html=1;rounded=0;" edge="1" parent="1">
          <mxGeometry width="50" height="50" relative="1" as="geometry">
            <mxPoint x="990" y="845" as="sourcePoint" />
            <mxPoint x="950" y="885" as="targetPoint" />
            <Array as="points">
              <mxPoint x="950" y="845" />
            </Array>
          </mxGeometry>
        </mxCell>
        <mxCell id="IEQYEWKx81t9l4njgBIL-277" value="" style="endArrow=none;html=1;rounded=0;" edge="1" parent="1">
          <mxGeometry width="50" height="50" relative="1" as="geometry">
            <mxPoint x="1530" y="1155" as="sourcePoint" />
            <mxPoint x="1490" y="1195" as="targetPoint" />
            <Array as="points">
              <mxPoint x="1530" y="1195" />
            </Array>
          </mxGeometry>
        </mxCell>
        <mxCell id="IEQYEWKx81t9l4njgBIL-278" value="E1" style="text;html=1;align=center;verticalAlign=middle;resizable=0;points=[];autosize=1;strokeColor=none;fillColor=none;" vertex="1" parent="1">
          <mxGeometry x="990" y="885" width="40" height="30" as="geometry" />
        </mxCell>
        <mxCell id="IEQYEWKx81t9l4njgBIL-279" value="E2" style="text;html=1;align=center;verticalAlign=middle;resizable=0;points=[];autosize=1;strokeColor=none;fillColor=none;" vertex="1" parent="1">
          <mxGeometry x="990" y="955" width="40" height="30" as="geometry" />
        </mxCell>
        <mxCell id="IEQYEWKx81t9l4njgBIL-280" value="E3" style="text;html=1;align=center;verticalAlign=middle;resizable=0;points=[];autosize=1;strokeColor=none;fillColor=none;" vertex="1" parent="1">
          <mxGeometry x="990" y="1035" width="40" height="30" as="geometry" />
        </mxCell>
        <mxCell id="IEQYEWKx81t9l4njgBIL-281" value="" style="verticalLabelPosition=bottom;shadow=0;dashed=0;align=center;html=1;verticalAlign=top;shape=mxgraph.electrical.logic_gates.logic_gate;operation=xor;negating=1;negSize=0.15;" vertex="1" parent="1">
          <mxGeometry x="1140" y="885" width="100" height="60" as="geometry" />
        </mxCell>
        <mxCell id="IEQYEWKx81t9l4njgBIL-282" value="" style="endArrow=none;html=1;rounded=0;entryX=0;entryY=0.25;entryDx=0;entryDy=0;entryPerimeter=0;" edge="1" parent="1" target="IEQYEWKx81t9l4njgBIL-281">
          <mxGeometry width="50" height="50" relative="1" as="geometry">
            <mxPoint x="1030" y="900" as="sourcePoint" />
            <mxPoint x="1260" y="965" as="targetPoint" />
          </mxGeometry>
        </mxCell>
        <mxCell id="IEQYEWKx81t9l4njgBIL-283" value="" style="endArrow=none;html=1;rounded=0;entryX=0.234;entryY=0.501;entryDx=0;entryDy=0;entryPerimeter=0;" edge="1" parent="1" target="IEQYEWKx81t9l4njgBIL-281">
          <mxGeometry width="50" height="50" relative="1" as="geometry">
            <mxPoint x="1030" y="975" as="sourcePoint" />
            <mxPoint x="1260" y="955" as="targetPoint" />
            <Array as="points">
              <mxPoint x="1070" y="975" />
              <mxPoint x="1070" y="915" />
            </Array>
          </mxGeometry>
        </mxCell>
        <mxCell id="IEQYEWKx81t9l4njgBIL-284" value="" style="verticalLabelPosition=bottom;shadow=0;dashed=0;align=center;html=1;verticalAlign=top;shape=mxgraph.electrical.logic_gates.logic_gate;operation=xor;" vertex="1" parent="1">
          <mxGeometry x="1140" y="1010" width="100" height="60" as="geometry" />
        </mxCell>
        <mxCell id="IEQYEWKx81t9l4njgBIL-285" value="" style="endArrow=none;html=1;rounded=0;exitX=0.23;exitY=0.495;exitDx=0;exitDy=0;exitPerimeter=0;" edge="1" parent="1" source="IEQYEWKx81t9l4njgBIL-284">
          <mxGeometry width="50" height="50" relative="1" as="geometry">
            <mxPoint x="1130" y="1085" as="sourcePoint" />
            <mxPoint x="1070" y="975" as="targetPoint" />
            <Array as="points">
              <mxPoint x="1070" y="1040" />
            </Array>
          </mxGeometry>
        </mxCell>
        <mxCell id="IEQYEWKx81t9l4njgBIL-286" value="" style="endArrow=none;html=1;rounded=0;exitX=0;exitY=0.25;exitDx=0;exitDy=0;exitPerimeter=0;" edge="1" parent="1" source="IEQYEWKx81t9l4njgBIL-284">
          <mxGeometry width="50" height="50" relative="1" as="geometry">
            <mxPoint x="1140" y="1045" as="sourcePoint" />
            <mxPoint x="1110" y="900" as="targetPoint" />
            <Array as="points">
              <mxPoint x="1110" y="1025" />
            </Array>
          </mxGeometry>
        </mxCell>
        <mxCell id="IEQYEWKx81t9l4njgBIL-287" value="" style="endArrow=none;html=1;rounded=0;exitX=0;exitY=0.5;exitDx=0;exitDy=0;exitPerimeter=0;" edge="1" parent="1" source="IEQYEWKx81t9l4njgBIL-288">
          <mxGeometry width="50" height="50" relative="1" as="geometry">
            <mxPoint x="1130" y="1135" as="sourcePoint" />
            <mxPoint x="1030" y="1121" as="targetPoint" />
          </mxGeometry>
        </mxCell>
        <mxCell id="IEQYEWKx81t9l4njgBIL-288" value="" style="verticalLabelPosition=bottom;shadow=0;dashed=0;align=center;html=1;verticalAlign=top;shape=mxgraph.electrical.logic_gates.inverter_2" vertex="1" parent="1">
          <mxGeometry x="1160" y="1100" width="60" height="40" as="geometry" />
        </mxCell>
        <mxCell id="IEQYEWKx81t9l4njgBIL-289" value="" style="endArrow=none;html=1;rounded=0;entryX=0;entryY=0.75;entryDx=0;entryDy=0;entryPerimeter=0;" edge="1" parent="1" target="IEQYEWKx81t9l4njgBIL-291">
          <mxGeometry width="50" height="50" relative="1" as="geometry">
            <mxPoint x="1090" y="1121" as="sourcePoint" />
            <mxPoint x="1360" y="1131" as="targetPoint" />
            <Array as="points">
              <mxPoint x="1090" y="1155" />
              <mxPoint x="1330" y="1155" />
              <mxPoint x="1330" y="985" />
            </Array>
          </mxGeometry>
        </mxCell>
        <mxCell id="IEQYEWKx81t9l4njgBIL-290" value="" style="verticalLabelPosition=bottom;shadow=0;dashed=0;align=center;html=1;verticalAlign=top;shape=mxgraph.electrical.logic_gates.logic_gate;operation=and;" vertex="1" parent="1">
          <mxGeometry x="1390" y="905" width="70" height="40" as="geometry" />
        </mxCell>
        <mxCell id="IEQYEWKx81t9l4njgBIL-291" value="" style="verticalLabelPosition=bottom;shadow=0;dashed=0;align=center;html=1;verticalAlign=top;shape=mxgraph.electrical.logic_gates.logic_gate;operation=and;" vertex="1" parent="1">
          <mxGeometry x="1390" y="955" width="70" height="40" as="geometry" />
        </mxCell>
        <mxCell id="IEQYEWKx81t9l4njgBIL-292" value="" style="verticalLabelPosition=bottom;shadow=0;dashed=0;align=center;html=1;verticalAlign=top;shape=mxgraph.electrical.logic_gates.logic_gate;operation=and;" vertex="1" parent="1">
          <mxGeometry x="1390" y="1030" width="70" height="40" as="geometry" />
        </mxCell>
        <mxCell id="IEQYEWKx81t9l4njgBIL-293" value="" style="verticalLabelPosition=bottom;shadow=0;dashed=0;align=center;html=1;verticalAlign=top;shape=mxgraph.electrical.logic_gates.logic_gate;operation=and;" vertex="1" parent="1">
          <mxGeometry x="1390" y="1090" width="70" height="40" as="geometry" />
        </mxCell>
        <mxCell id="IEQYEWKx81t9l4njgBIL-294" value="" style="endArrow=none;html=1;rounded=0;entryX=0;entryY=0.75;entryDx=0;entryDy=0;entryPerimeter=0;" edge="1" parent="1" source="IEQYEWKx81t9l4njgBIL-288" target="IEQYEWKx81t9l4njgBIL-293">
          <mxGeometry width="50" height="50" relative="1" as="geometry">
            <mxPoint x="1240" y="1065" as="sourcePoint" />
            <mxPoint x="1290" y="1015" as="targetPoint" />
          </mxGeometry>
        </mxCell>
        <mxCell id="IEQYEWKx81t9l4njgBIL-295" value="" style="endArrow=none;html=1;rounded=0;entryX=0;entryY=0.75;entryDx=0;entryDy=0;entryPerimeter=0;" edge="1" parent="1" target="IEQYEWKx81t9l4njgBIL-290">
          <mxGeometry width="50" height="50" relative="1" as="geometry">
            <mxPoint x="1250" y="1121" as="sourcePoint" />
            <mxPoint x="1390" y="941" as="targetPoint" />
            <Array as="points">
              <mxPoint x="1250" y="935" />
            </Array>
          </mxGeometry>
        </mxCell>
        <mxCell id="IEQYEWKx81t9l4njgBIL-296" value="" style="endArrow=none;html=1;rounded=0;entryX=0;entryY=0.25;entryDx=0;entryDy=0;entryPerimeter=0;" edge="1" parent="1" target="IEQYEWKx81t9l4njgBIL-290">
          <mxGeometry width="50" height="50" relative="1" as="geometry">
            <mxPoint x="1240" y="915" as="sourcePoint" />
            <mxPoint x="1290" y="1015" as="targetPoint" />
          </mxGeometry>
        </mxCell>
        <mxCell id="IEQYEWKx81t9l4njgBIL-297" value="" style="endArrow=none;html=1;rounded=0;entryX=0;entryY=0.25;entryDx=0;entryDy=0;entryPerimeter=0;" edge="1" parent="1" target="IEQYEWKx81t9l4njgBIL-291">
          <mxGeometry width="50" height="50" relative="1" as="geometry">
            <mxPoint x="1290" y="915" as="sourcePoint" />
            <mxPoint x="1290" y="1005" as="targetPoint" />
            <Array as="points">
              <mxPoint x="1290" y="965" />
            </Array>
          </mxGeometry>
        </mxCell>
        <mxCell id="IEQYEWKx81t9l4njgBIL-298" value="" style="endArrow=none;html=1;rounded=0;entryX=0;entryY=0.25;entryDx=0;entryDy=0;entryPerimeter=0;" edge="1" parent="1" target="IEQYEWKx81t9l4njgBIL-292">
          <mxGeometry width="50" height="50" relative="1" as="geometry">
            <mxPoint x="1230" y="1040" as="sourcePoint" />
            <mxPoint x="1290" y="1015" as="targetPoint" />
          </mxGeometry>
        </mxCell>
        <mxCell id="IEQYEWKx81t9l4njgBIL-299" value="" style="endArrow=none;html=1;rounded=0;entryX=0;entryY=0.25;entryDx=0;entryDy=0;entryPerimeter=0;" edge="1" parent="1" target="IEQYEWKx81t9l4njgBIL-293">
          <mxGeometry width="50" height="50" relative="1" as="geometry">
            <mxPoint x="1290" y="1040" as="sourcePoint" />
            <mxPoint x="1310" y="1100" as="targetPoint" />
            <Array as="points">
              <mxPoint x="1290" y="1100" />
            </Array>
          </mxGeometry>
        </mxCell>
        <mxCell id="IEQYEWKx81t9l4njgBIL-300" value="" style="endArrow=none;html=1;rounded=0;entryX=0;entryY=0.75;entryDx=0;entryDy=0;entryPerimeter=0;" edge="1" parent="1" target="IEQYEWKx81t9l4njgBIL-292">
          <mxGeometry width="50" height="50" relative="1" as="geometry">
            <mxPoint x="1330" y="1060" as="sourcePoint" />
            <mxPoint x="1230" y="1025" as="targetPoint" />
          </mxGeometry>
        </mxCell>
        <mxCell id="IEQYEWKx81t9l4njgBIL-301" value="S1" style="text;html=1;align=center;verticalAlign=middle;resizable=0;points=[];autosize=1;strokeColor=none;fillColor=none;" vertex="1" parent="1">
          <mxGeometry x="1460" y="910" width="40" height="30" as="geometry" />
        </mxCell>
        <mxCell id="IEQYEWKx81t9l4njgBIL-302" value="S2" style="text;html=1;align=center;verticalAlign=middle;resizable=0;points=[];autosize=1;strokeColor=none;fillColor=none;" vertex="1" parent="1">
          <mxGeometry x="1460" y="960" width="40" height="30" as="geometry" />
        </mxCell>
        <mxCell id="IEQYEWKx81t9l4njgBIL-303" value="S3" style="text;html=1;align=center;verticalAlign=middle;resizable=0;points=[];autosize=1;strokeColor=none;fillColor=none;" vertex="1" parent="1">
          <mxGeometry x="1460" y="1035" width="40" height="30" as="geometry" />
        </mxCell>
        <mxCell id="IEQYEWKx81t9l4njgBIL-304" value="S4" style="text;html=1;align=center;verticalAlign=middle;resizable=0;points=[];autosize=1;strokeColor=none;fillColor=none;" vertex="1" parent="1">
          <mxGeometry x="1460" y="1095" width="40" height="30" as="geometry" />
        </mxCell>
        <mxCell id="IEQYEWKx81t9l4njgBIL-305" value="" style="endArrow=none;html=1;rounded=0;entryX=0;entryY=0.75;entryDx=0;entryDy=0;entryPerimeter=0;" edge="1" parent="1" target="IEQYEWKx81t9l4njgBIL-284">
          <mxGeometry width="50" height="50" relative="1" as="geometry">
            <mxPoint x="1030" y="1055" as="sourcePoint" />
            <mxPoint x="1130" y="945" as="targetPoint" />
          </mxGeometry>
        </mxCell>
        <mxCell id="IEQYEWKx81t9l4njgBIL-306" value="" style="endArrow=none;html=1;rounded=0;entryX=0;entryY=0.75;entryDx=0;entryDy=0;entryPerimeter=0;" edge="1" parent="1" target="IEQYEWKx81t9l4njgBIL-281">
          <mxGeometry width="50" height="50" relative="1" as="geometry">
            <mxPoint x="1090" y="1055" as="sourcePoint" />
            <mxPoint x="1150" y="925" as="targetPoint" />
            <Array as="points">
              <mxPoint x="1090" y="930" />
            </Array>
          </mxGeometry>
        </mxCell>
        <mxCell id="IEQYEWKx81t9l4njgBIL-307" value="E4" style="text;html=1;align=center;verticalAlign=middle;resizable=0;points=[];autosize=1;strokeColor=none;fillColor=none;" vertex="1" parent="1">
          <mxGeometry x="990" y="1105" width="40" height="30" as="geometry" />
        </mxCell>
        <mxCell id="IEQYEWKx81t9l4njgBIL-308" value="" style="endArrow=none;html=1;rounded=0;" edge="1" parent="1">
          <mxGeometry width="50" height="50" relative="1" as="geometry">
            <mxPoint x="800" y="1270" as="sourcePoint" />
            <mxPoint x="760" y="1310" as="targetPoint" />
            <Array as="points">
              <mxPoint x="760" y="1270" />
            </Array>
          </mxGeometry>
        </mxCell>
        <mxCell id="IEQYEWKx81t9l4njgBIL-309" value="E1" style="text;html=1;align=center;verticalAlign=middle;resizable=0;points=[];autosize=1;strokeColor=none;fillColor=none;" vertex="1" parent="1">
          <mxGeometry x="800" y="1310" width="40" height="30" as="geometry" />
        </mxCell>
        <mxCell id="IEQYEWKx81t9l4njgBIL-310" value="E2" style="text;html=1;align=center;verticalAlign=middle;resizable=0;points=[];autosize=1;strokeColor=none;fillColor=none;" vertex="1" parent="1">
          <mxGeometry x="800" y="1360" width="40" height="30" as="geometry" />
        </mxCell>
        <mxCell id="IEQYEWKx81t9l4njgBIL-311" value="E3" style="text;html=1;align=center;verticalAlign=middle;resizable=0;points=[];autosize=1;strokeColor=none;fillColor=none;" vertex="1" parent="1">
          <mxGeometry x="800" y="1410" width="40" height="30" as="geometry" />
        </mxCell>
        <mxCell id="IEQYEWKx81t9l4njgBIL-312" value="Mux" style="shadow=0;dashed=0;align=center;html=1;strokeWidth=1;shape=mxgraph.electrical.abstract.mux2;whiteSpace=wrap;" vertex="1" parent="1">
          <mxGeometry x="900" y="1300" width="80" height="120" as="geometry" />
        </mxCell>
        <mxCell id="IEQYEWKx81t9l4njgBIL-313" value="" style="endArrow=none;html=1;rounded=0;entryX=0;entryY=0.21666666666666667;entryDx=0;entryDy=3;entryPerimeter=0;" edge="1" parent="1" target="IEQYEWKx81t9l4njgBIL-312">
          <mxGeometry width="50" height="50" relative="1" as="geometry">
            <mxPoint x="840" y="1329" as="sourcePoint" />
            <mxPoint x="1080" y="1450" as="targetPoint" />
          </mxGeometry>
        </mxCell>
        <mxCell id="IEQYEWKx81t9l4njgBIL-314" value="" style="endArrow=none;html=1;rounded=0;entryX=0;entryY=0.65;entryDx=0;entryDy=3;entryPerimeter=0;" edge="1" parent="1" target="IEQYEWKx81t9l4njgBIL-312">
          <mxGeometry width="50" height="50" relative="1" as="geometry">
            <mxPoint x="840" y="1381" as="sourcePoint" />
            <mxPoint x="1080" y="1450" as="targetPoint" />
          </mxGeometry>
        </mxCell>
        <mxCell id="IEQYEWKx81t9l4njgBIL-315" value="" style="endArrow=none;html=1;rounded=0;entryX=0.375;entryY=1;entryDx=10;entryDy=0;entryPerimeter=0;" edge="1" parent="1" target="IEQYEWKx81t9l4njgBIL-312">
          <mxGeometry width="50" height="50" relative="1" as="geometry">
            <mxPoint x="840" y="1430" as="sourcePoint" />
            <mxPoint x="1000" y="1360" as="targetPoint" />
            <Array as="points">
              <mxPoint x="940" y="1430" />
            </Array>
          </mxGeometry>
        </mxCell>
        <mxCell id="IEQYEWKx81t9l4njgBIL-316" value="" style="endArrow=none;html=1;rounded=0;entryX=1;entryY=0.5;entryDx=0;entryDy=-5;entryPerimeter=0;" edge="1" parent="1" target="IEQYEWKx81t9l4njgBIL-312">
          <mxGeometry width="50" height="50" relative="1" as="geometry">
            <mxPoint x="1010" y="1355" as="sourcePoint" />
            <mxPoint x="1000" y="1360" as="targetPoint" />
          </mxGeometry>
        </mxCell>
        <mxCell id="IEQYEWKx81t9l4njgBIL-317" value="S" style="text;html=1;align=center;verticalAlign=middle;resizable=0;points=[];autosize=1;strokeColor=none;fillColor=none;" vertex="1" parent="1">
          <mxGeometry x="1010" y="1340" width="30" height="30" as="geometry" />
        </mxCell>
        <mxCell id="IEQYEWKx81t9l4njgBIL-318" value="" style="endArrow=none;html=1;rounded=0;" edge="1" parent="1">
          <mxGeometry width="50" height="50" relative="1" as="geometry">
            <mxPoint x="1060" y="1420" as="sourcePoint" />
            <mxPoint x="1010" y="1470" as="targetPoint" />
            <Array as="points">
              <mxPoint x="1060" y="1470" />
            </Array>
          </mxGeometry>
        </mxCell>
        <mxCell id="IEQYEWKx81t9l4njgBIL-319" value="" style="endArrow=none;html=1;rounded=0;" edge="1" parent="1">
          <mxGeometry width="50" height="50" relative="1" as="geometry">
            <mxPoint x="1160" y="1275" as="sourcePoint" />
            <mxPoint x="1120" y="1315" as="targetPoint" />
            <Array as="points">
              <mxPoint x="1120" y="1275" />
            </Array>
          </mxGeometry>
        </mxCell>
        <mxCell id="IEQYEWKx81t9l4njgBIL-320" value="E1" style="text;html=1;align=center;verticalAlign=middle;resizable=0;points=[];autosize=1;strokeColor=none;fillColor=none;" vertex="1" parent="1">
          <mxGeometry x="1160" y="1315" width="40" height="30" as="geometry" />
        </mxCell>
        <mxCell id="IEQYEWKx81t9l4njgBIL-321" value="E2" style="text;html=1;align=center;verticalAlign=middle;resizable=0;points=[];autosize=1;strokeColor=none;fillColor=none;" vertex="1" parent="1">
          <mxGeometry x="1160" y="1355" width="40" height="30" as="geometry" />
        </mxCell>
        <mxCell id="IEQYEWKx81t9l4njgBIL-322" value="" style="endArrow=none;html=1;rounded=0;entryX=0;entryY=0.25;entryDx=0;entryDy=0;entryPerimeter=0;" edge="1" parent="1" target="IEQYEWKx81t9l4njgBIL-326">
          <mxGeometry width="50" height="50" relative="1" as="geometry">
            <mxPoint x="1200" y="1332" as="sourcePoint" />
            <mxPoint x="1240" y="1331.5" as="targetPoint" />
          </mxGeometry>
        </mxCell>
        <mxCell id="IEQYEWKx81t9l4njgBIL-323" value="" style="endArrow=none;html=1;rounded=0;entryX=0;entryY=0.75;entryDx=0;entryDy=0;entryPerimeter=0;" edge="1" parent="1" target="IEQYEWKx81t9l4njgBIL-326">
          <mxGeometry width="50" height="50" relative="1" as="geometry">
            <mxPoint x="1200" y="1368" as="sourcePoint" />
            <mxPoint x="1260" y="1385" as="targetPoint" />
          </mxGeometry>
        </mxCell>
        <mxCell id="IEQYEWKx81t9l4njgBIL-324" value="S" style="text;html=1;align=center;verticalAlign=middle;resizable=0;points=[];autosize=1;strokeColor=none;fillColor=none;" vertex="1" parent="1">
          <mxGeometry x="1370" y="1335" width="30" height="30" as="geometry" />
        </mxCell>
        <mxCell id="IEQYEWKx81t9l4njgBIL-325" value="" style="endArrow=none;html=1;rounded=0;" edge="1" parent="1">
          <mxGeometry width="50" height="50" relative="1" as="geometry">
            <mxPoint x="1420" y="1385" as="sourcePoint" />
            <mxPoint x="1370" y="1435" as="targetPoint" />
            <Array as="points">
              <mxPoint x="1420" y="1435" />
            </Array>
          </mxGeometry>
        </mxCell>
        <mxCell id="IEQYEWKx81t9l4njgBIL-326" value="" style="verticalLabelPosition=bottom;shadow=0;dashed=0;align=center;html=1;verticalAlign=top;shape=mxgraph.electrical.logic_gates.logic_gate;operation=xor;negating=1;negSize=0.15;" vertex="1" parent="1">
          <mxGeometry x="1230" y="1315" width="120" height="70" as="geometry" />
        </mxCell>
        <mxCell id="IEQYEWKx81t9l4njgBIL-327" value="" style="endArrow=none;html=1;rounded=0;exitX=1;exitY=0.5;exitDx=0;exitDy=0;exitPerimeter=0;" edge="1" parent="1" source="IEQYEWKx81t9l4njgBIL-326">
          <mxGeometry width="50" height="50" relative="1" as="geometry">
            <mxPoint x="1350" y="1356" as="sourcePoint" />
            <mxPoint x="1370" y="1350" as="targetPoint" />
          </mxGeometry>
        </mxCell>
        <mxCell id="IEQYEWKx81t9l4njgBIL-328" value="N" style="text;html=1;align=center;verticalAlign=middle;resizable=0;points=[];autosize=1;strokeColor=none;fillColor=none;" vertex="1" parent="1">
          <mxGeometry x="1135" y="1285" width="30" height="30" as="geometry" />
        </mxCell>
        <mxCell id="IEQYEWKx81t9l4njgBIL-329" value="M" style="text;html=1;align=center;verticalAlign=middle;resizable=0;points=[];autosize=1;strokeColor=none;fillColor=none;" vertex="1" parent="1">
          <mxGeometry x="775" y="1275" width="30" height="30" as="geometry" />
        </mxCell>
        <mxCell id="IEQYEWKx81t9l4njgBIL-330" value="GS" style="text;html=1;align=center;verticalAlign=middle;resizable=0;points=[];autosize=1;strokeColor=none;fillColor=none;" vertex="1" parent="1">
          <mxGeometry x="950" y="855" width="40" height="30" as="geometry" />
        </mxCell>
      </root>
    </mxGraphModel>
  </diagram>
</mxfile>
